<?xml version="1.0" encoding="UTF-8" standalone="no"?>
<!DOCTYPE svg PUBLIC "-//W3C//DTD SVG 1.1//EN" "http://www.w3.org/Graphics/SVG/1.1/DTD/svg11.dtd">
<svg width="100%" height="100%" viewBox="0 0 160 120" version="1.1" xmlns="http://www.w3.org/2000/svg" xmlns:xlink="http://www.w3.org/1999/xlink" xml:space="preserve" xmlns:serif="http://www.serif.com/" style="fill-rule:evenodd;clip-rule:evenodd;stroke-linejoin:round;stroke-miterlimit:2;">
    <g id="CreateContent" transform="matrix(1,0,0,1,-1090,-113)">
        <g transform="matrix(1,0,0,1,1139.81,137.551)">
            <path d="M58.843,40.886C58.843,41.019 58.79,41.146 58.697,41.24C58.603,41.333 58.476,41.386 58.343,41.386L55.149,41.386C55.016,41.386 54.889,41.333 54.795,41.24C54.702,41.146 54.649,41.019 54.649,40.886L54.649,37.286C54.649,37.153 54.596,37.026 54.503,36.932C54.409,36.839 54.282,36.786 54.149,36.786L50.949,36.786C50.816,36.786 50.689,36.839 50.595,36.932C50.502,37.026 50.449,37.153 50.449,37.286L50.449,40.886C50.449,41.162 50.225,41.386 49.949,41.386L8.907,41.386C8.631,41.386 8.407,41.162 8.407,40.886L8.407,37.286C8.407,37.153 8.354,37.026 8.261,36.932C8.167,36.839 8.04,36.786 7.907,36.786L4.7,36.786C4.567,36.786 4.44,36.839 4.346,36.932C4.253,37.026 4.2,37.153 4.2,37.286L4.2,40.886C4.2,41.019 4.147,41.146 4.054,41.24C3.96,41.333 3.833,41.386 3.7,41.386L0.5,41.386C0.224,41.386 0,41.162 0,40.886L0,5.1C0,4.824 0.224,4.6 0.5,4.6L7.907,4.6C8.04,4.6 8.167,4.547 8.261,4.454C8.354,4.36 8.407,4.233 8.407,4.1L8.407,0.5C8.407,0.367 8.46,0.24 8.553,0.146C8.647,0.053 8.774,-0 8.907,-0L49.943,0C50.076,-0 50.203,0.053 50.297,0.146C50.39,0.24 50.443,0.367 50.443,0.5L50.443,4.1C50.443,4.233 50.496,4.36 50.589,4.454C50.683,4.547 50.81,4.6 50.943,4.6L54.143,4.6C54.276,4.6 54.403,4.547 54.497,4.454C54.59,4.36 54.643,4.233 54.643,4.1L54.643,0.5C54.643,0.367 54.696,0.24 54.789,0.146C54.883,0.053 55.01,-0 55.143,-0L58.343,0C58.476,-0 58.603,0.053 58.697,0.146C58.79,0.24 58.843,0.367 58.843,0.5L58.843,40.886ZM13.463,23.707C13.187,23.707 12.963,23.931 12.963,24.207L12.963,37C12.963,37.276 13.187,37.5 13.463,37.5L44.639,37.5C44.772,37.5 44.899,37.447 44.993,37.354C45.086,37.26 45.139,37.133 45.139,37L45.139,24.2C45.139,24.067 45.086,23.94 44.993,23.847C44.899,23.753 44.772,23.7 44.639,23.7C40.889,23.701 17.212,23.706 13.463,23.707ZM50.942,27.591C50.809,27.591 50.682,27.644 50.588,27.737C50.495,27.831 50.442,27.958 50.442,28.091L50.442,31.691C50.442,31.824 50.495,31.951 50.588,32.045C50.682,32.138 50.809,32.191 50.942,32.191L54.142,32.191C54.275,32.191 54.402,32.138 54.496,32.045C54.589,31.951 54.642,31.824 54.642,31.691L54.642,28.091C54.642,27.958 54.589,27.831 54.496,27.737C54.402,27.644 54.275,27.591 54.142,27.591L50.942,27.591ZM4.703,27.591C4.57,27.591 4.443,27.644 4.349,27.737C4.256,27.831 4.203,27.958 4.203,28.091L4.203,31.691C4.203,31.824 4.256,31.951 4.349,32.045C4.443,32.138 4.57,32.191 4.703,32.191L7.903,32.191C8.036,32.191 8.163,32.138 8.257,32.045C8.35,31.951 8.403,31.824 8.403,31.691L8.403,28.091C8.403,27.958 8.35,27.831 8.257,27.737C8.163,27.644 8.036,27.591 7.903,27.591L4.703,27.591ZM50.942,18.391C50.809,18.391 50.682,18.444 50.588,18.537C50.495,18.631 50.442,18.758 50.442,18.891L50.442,22.491C50.442,22.624 50.495,22.751 50.588,22.845C50.682,22.938 50.809,22.991 50.942,22.991L54.142,22.991C54.275,22.991 54.402,22.938 54.496,22.845C54.589,22.751 54.642,22.624 54.642,22.491L54.642,18.891C54.642,18.758 54.589,18.631 54.496,18.537C54.402,18.444 54.275,18.391 54.142,18.391L50.942,18.391ZM4.703,18.391C4.57,18.391 4.443,18.444 4.349,18.537C4.256,18.631 4.203,18.758 4.203,18.891L4.203,22.491C4.203,22.624 4.256,22.751 4.349,22.845C4.443,22.938 4.57,22.991 4.703,22.991L7.903,22.991C8.036,22.991 8.163,22.938 8.257,22.845C8.35,22.751 8.403,22.624 8.403,22.491L8.403,18.891C8.403,18.758 8.35,18.631 8.257,18.537C8.163,18.444 8.036,18.391 7.903,18.391L4.703,18.391ZM13.463,4.44C13.33,4.44 13.203,4.493 13.109,4.586C13.016,4.68 12.963,4.807 12.963,4.94L12.963,17.74C12.963,17.873 13.016,18 13.109,18.094C13.203,18.187 13.33,18.24 13.463,18.24L44.639,18.24C44.915,18.24 45.139,18.016 45.139,17.74L45.139,4.943C45.139,4.667 44.915,4.443 44.639,4.443C40.889,4.443 17.213,4.44 13.463,4.44ZM50.942,9.2C50.809,9.2 50.682,9.253 50.588,9.346C50.495,9.44 50.442,9.567 50.442,9.7L50.442,13.3C50.442,13.433 50.495,13.56 50.588,13.654C50.682,13.747 50.809,13.8 50.942,13.8L54.142,13.8C54.275,13.8 54.402,13.747 54.496,13.654C54.589,13.56 54.642,13.433 54.642,13.3L54.642,9.7C54.642,9.567 54.589,9.44 54.496,9.346C54.402,9.253 54.275,9.2 54.142,9.2L50.942,9.2ZM4.7,9.2C4.567,9.2 4.44,9.253 4.346,9.346C4.253,9.44 4.2,9.567 4.2,9.7L4.2,13.3C4.2,13.433 4.253,13.56 4.346,13.654C4.44,13.747 4.567,13.8 4.7,13.8L7.9,13.8C8.033,13.8 8.16,13.747 8.254,13.654C8.347,13.56 8.4,13.433 8.4,13.3L8.4,9.7C8.4,9.567 8.347,9.44 8.254,9.346C8.16,9.253 8.033,9.2 7.9,9.2L4.7,9.2Z" style="fill:rgb(209,114,241);fill-rule:nonzero;"/>
        </g>
        <g transform="matrix(1,0,0,1,1151,188)">
            <path d="M0,0L53,0C54.097,-0 55,0.903 55,2L55,7C55,8.097 54.097,9 53,9L0,9L0,0Z" style="fill:rgb(209,114,241);fill-rule:nonzero;"/>
        </g>
        <g transform="matrix(1,0,0,1,1151,199)">
            <path d="M0,0L7,0C8.097,-0 9,0.903 9,2L9,7C9,8.097 8.097,9 7,9L0,9L0,0Z" style="fill:rgb(209,114,241);fill-rule:nonzero;"/>
        </g>
        <g transform="matrix(1,0,0,1,1178,199)">
            <path d="M17,2C17,0.896 16.104,0 15,0L2,0C0.896,0 0,0.896 0,2L0,7C0,8.104 0.896,9 2,9L15,9C16.104,9 17,8.104 17,7L17,2Z" style="fill:rgb(209,114,241);"/>
        </g>
        <g transform="matrix(1,0,0,1,1134,188)">
            <path d="M2,0L15,0L15,9L2,9C0.903,9 0,8.097 0,7L0,2C-0,0.903 0.903,0 2,0Z" style="fill:rgb(209,114,241);fill-rule:nonzero;"/>
        </g>
        <g transform="matrix(1,0,0,1,1134,199)">
            <path d="M2,0L15,0L15,9L2,9C0.903,9 0,8.097 0,7L0,2C-0,0.903 0.903,0 2,0Z" style="fill:rgb(209,114,241);fill-rule:nonzero;"/>
        </g>
    </g>
</svg>
