<?xml version="1.0" encoding="UTF-8" standalone="no"?>
<!DOCTYPE svg PUBLIC "-//W3C//DTD SVG 1.1//EN" "http://www.w3.org/Graphics/SVG/1.1/DTD/svg11.dtd">
<svg width="100%" height="100%" viewBox="0 0 161 120" version="1.1" xmlns="http://www.w3.org/2000/svg" xmlns:xlink="http://www.w3.org/1999/xlink" xml:space="preserve" xmlns:serif="http://www.serif.com/" style="fill-rule:evenodd;clip-rule:evenodd;stroke-linejoin:round;stroke-miterlimit:2;">
    <g id="Demo" transform="matrix(1,0,0,1,-1769,-115)">
        <g transform="matrix(1,0,0,1,1817.57,183)">
            <g>
                <path d="M1.504,-15.705L7.853,-15.705C10.123,-15.705 11.877,-15.139 13.116,-14.008C14.685,-12.576 15.469,-10.592 15.469,-8.057C15.469,-5.357 14.728,-3.273 13.245,-1.805C12.593,-1.153 11.859,-0.689 11.043,-0.414C10.227,-0.138 9.188,0 7.928,0L1.504,0L1.504,-15.705ZM4.931,-12.805L4.931,-2.9L7.573,-2.9C9.049,-2.9 10.112,-3.255 10.764,-3.964C11.594,-4.866 12.01,-6.188 12.01,-7.928C12.01,-11.179 10.488,-12.805 7.444,-12.805L4.931,-12.805Z" style="fill:rgb(54,241,255);fill-rule:nonzero;"/>
                <path d="M28.531,-3.534C28.223,-2.353 27.59,-1.416 26.63,-0.725C25.67,-0.034 24.528,0.312 23.203,0.312C21.449,0.312 20.045,-0.222 18.992,-1.289C17.911,-2.392 17.37,-3.839 17.37,-5.629C17.37,-7.29 17.861,-8.683 18.842,-9.808C19.938,-11.068 21.355,-11.698 23.096,-11.698C24.879,-11.698 26.261,-11.104 27.242,-9.915C28.223,-8.726 28.714,-7.047 28.714,-4.877L20.539,-4.877C20.618,-2.915 21.509,-1.934 23.214,-1.934C24.317,-1.934 25.09,-2.467 25.534,-3.534L28.531,-3.534ZM25.534,-6.875C25.448,-7.699 25.192,-8.334 24.766,-8.782C24.34,-9.229 23.78,-9.453 23.085,-9.453C22.39,-9.453 21.817,-9.222 21.366,-8.76C20.915,-8.298 20.646,-7.67 20.561,-6.875L25.534,-6.875Z" style="fill:rgb(54,241,255);fill-rule:nonzero;"/>
                <path d="M33.945,-11.387L33.945,-9.829C34.855,-11.075 36.058,-11.698 37.555,-11.698C39.073,-11.698 40.14,-11.068 40.756,-9.808C41.687,-11.068 42.933,-11.698 44.494,-11.698C45.712,-11.698 46.655,-11.346 47.325,-10.64C47.994,-9.935 48.329,-8.945 48.329,-7.67L48.329,0L45.214,0L45.214,-6.8C45.214,-7.537 45.132,-8.053 44.967,-8.347C44.68,-8.884 44.154,-9.152 43.388,-9.152C42.607,-9.152 42.047,-8.921 41.707,-8.459C41.366,-7.998 41.196,-7.237 41.196,-6.177L41.196,0L38.081,0L38.081,-6.939C38.081,-7.727 37.947,-8.293 37.678,-8.637C37.41,-8.98 36.971,-9.152 36.362,-9.152C34.844,-9.152 34.085,-8.16 34.085,-6.177L34.085,0L30.97,0L30.97,-11.387L33.945,-11.387Z" style="fill:rgb(54,241,255);fill-rule:nonzero;"/>
                <path d="M56.912,-11.698C58.617,-11.698 60.009,-11.15 61.091,-10.055C62.158,-8.966 62.691,-7.516 62.691,-5.704C62.691,-3.842 62.122,-2.356 60.983,-1.246C59.916,-0.208 58.527,0.312 56.815,0.312C54.989,0.312 53.535,-0.265 52.454,-1.418C51.423,-2.521 50.907,-3.946 50.907,-5.693C50.907,-7.434 51.409,-8.834 52.411,-9.894C53.543,-11.097 55.043,-11.698 56.912,-11.698ZM56.74,-9.389C55.91,-9.389 55.252,-9.057 54.769,-8.395C54.286,-7.733 54.044,-6.832 54.044,-5.693C54.044,-4.526 54.287,-3.618 54.774,-2.97C55.261,-2.322 55.942,-1.998 56.815,-1.998C57.668,-1.998 58.335,-2.324 58.819,-2.976C59.302,-3.627 59.544,-4.533 59.544,-5.693C59.544,-6.861 59.299,-7.768 58.808,-8.417C58.318,-9.065 57.628,-9.389 56.74,-9.389Z" style="fill:rgb(54,241,255);fill-rule:nonzero;"/>
            </g>
        </g>
        <g opacity="0.6">
            <g transform="matrix(1,0,0,1,1736.77,-186.307)">
                <path d="M124.315,356.917L125.3,356.835C126.763,356.835 127.887,357.286 128.692,358.134C129.484,358.968 129.909,360.129 129.909,361.637L129.909,369.307C129.909,369.734 129.563,370.081 129.135,370.081L126.02,370.081C125.592,370.081 125.246,369.734 125.246,369.307L125.246,362.507C125.246,361.953 125.222,361.56 125.098,361.339C125.095,361.334 125.092,361.329 125.09,361.325C124.932,361.028 124.617,360.929 124.194,360.929C123.711,360.929 123.346,361.021 123.136,361.306C122.865,361.674 122.776,362.288 122.776,363.13L122.776,369.307C122.776,369.734 122.43,370.081 122.002,370.081L118.887,370.081C118.46,370.081 118.113,369.734 118.113,369.307L118.113,362.788L115.665,365.123L115.665,369.307C115.665,369.734 115.318,370.081 114.891,370.081L111.776,370.081C111.391,370.081 111.071,369.8 111.051,369.425C108.618,371.676 106.291,374.04 104.046,376.48C102.26,378.429 104.208,382.396 104.946,384.507C106.199,388.172 107.428,391.815 108.681,395.48C109.228,397.276 109.926,399.022 110.769,400.7C111.627,402.254 115.93,402.728 118.064,402.125C117.761,401.072 117.404,400.008 117.175,399.192C116.456,396.64 113.347,387.43 113.95,385.412C114.739,382.86 119.239,379.775 121.188,377.988L132.141,367.694C131.339,366.587 130.939,365.224 130.939,363.614C130.939,361.651 131.523,360.078 132.654,358.882C133.929,357.527 135.613,356.835 137.718,356.835C139.564,356.835 141.083,357.413 142.27,358.561L142.415,358.478C145.245,357.666 147.449,358.014 149.328,357.828L177.387,357.828C177.434,357.262 177.227,355.668 176.844,354.672C175.327,350.726 174.269,350.96 168.144,350.96C165.407,351.006 164.177,351.03 160.651,351.03C153.993,351.03 150.397,350.984 144.017,350.984C137.637,350.984 135.735,350.543 132.302,351.448C128.872,352.35 126.617,354.758 124.315,356.917Z" style="fill:rgb(54,241,255);"/>
            </g>
            <g transform="matrix(1,0,0,1,1736.77,-186.307)">
                <path d="M106.038,339.222L92.188,352.654L91.569,353.216C92.715,353.504 93.669,354.02 94.444,354.728C96.165,356.3 97.049,358.468 97.049,361.25C97.049,364.192 96.211,366.451 94.597,368.051C93.857,368.79 93.023,369.314 92.097,369.627C91.215,369.924 90.095,370.081 88.734,370.081L82.31,370.081C81.882,370.081 81.536,369.734 81.536,369.307L81.536,360.729L80.565,361.075C78.365,361.701 75.508,361.516 73.002,361.516C68.107,361.539 63.235,361.516 58.34,361.539C56.6,361.539 55.347,361.446 53.607,361.516C51.821,361.516 54.141,366.829 54.86,369.288C55.742,372.281 56.86,374.788 58.386,375.807C60.404,376.874 65.276,376.549 68.222,376.549L88.177,376.549C91.216,376.41 93.954,376.317 96.065,375.296C98.094,374.335 100.278,372.055 102.165,370.159C101.012,369.913 100.043,369.368 99.247,368.561L99.246,368.56C98.028,367.318 97.402,365.695 97.402,363.678C97.402,361.813 97.963,360.253 99.064,358.991C100.311,357.557 101.922,356.835 103.902,356.835C105.945,356.835 107.521,357.537 108.645,358.899C109.417,359.834 109.928,361.041 110.142,362.528L111.002,361.709L111.002,357.92C111.002,357.493 111.348,357.146 111.776,357.146L114.751,357.146C115.03,357.146 115.274,357.293 115.381,357.532L115.947,356.992C118.87,353.953 123.811,350.125 124.415,347.063L124.437,347.04C124.994,344.279 124.043,341.495 123.393,339.292C122.535,336.856 121.653,334.559 120.793,332.1C119.819,328.922 117.731,321.823 116.408,320.431C115.48,319.48 113.926,318.9 111.675,318.9C112.09,320.426 112.609,321.922 113.229,323.377C114.137,325.594 114.284,328.051 113.647,330.36C112.51,334.049 108.547,336.786 106.038,339.222Z" style="fill:rgb(54,241,255);"/>
            </g>
            <g transform="matrix(1,0,0,1,1736.77,-186.307)">
                <path d="M105.816,365.204L102.214,365.204C102.297,365.58 102.435,365.886 102.646,366.117C102.958,366.46 103.424,366.599 104.02,366.599C104.787,366.599 105.317,366.217 105.626,365.475C105.669,365.37 105.735,365.278 105.816,365.204Z" style="fill:rgb(54,241,255);"/>
            </g>
            <g transform="matrix(1,0,0,1,1736.77,-186.307)">
                <path d="M87.178,357.276L88.25,357.276C89.515,357.276 90.477,357.575 91.109,358.25C91.758,358.943 92.042,359.994 92.042,361.379C92.042,362.884 91.719,364.038 91,364.819C90.468,365.398 89.583,365.633 88.379,365.633L86.511,365.633L86.511,357.84L86.996,357.448L87.178,357.276Z" style="fill:rgb(54,241,255);"/>
            </g>
            <g transform="matrix(1,0,0,1,1736.77,-186.307)">
                <path d="M135.702,364.348L135.624,363.614C135.624,362.67 135.8,361.917 136.2,361.368C136.53,360.916 136.979,360.692 137.546,360.692C138.086,360.692 138.525,360.853 138.828,361.221L136.221,363.86L135.702,364.348Z" style="fill:rgb(54,241,255);"/>
            </g>
            <g transform="matrix(1,0,0,1,1736.77,-186.307)">
                <path d="M105.38,361.658L102.348,361.658C102.443,361.44 102.568,361.25 102.726,361.088C103.031,360.775 103.421,360.628 103.891,360.628C104.352,360.628 104.729,360.762 105.012,361.059C105.168,361.224 105.289,361.424 105.38,361.658Z" style="fill:rgb(54,241,255);"/>
            </g>
            <g transform="matrix(1,0,0,1,1769,115)">
                <path d="M73.584,63.897L69.982,63.897C70.065,64.273 70.203,64.579 70.414,64.81C70.726,65.153 71.192,65.292 71.788,65.292C72.555,65.292 73.085,64.91 73.394,64.168C73.437,64.063 73.503,63.971 73.584,63.897Z" style="fill:rgb(54,241,255);"/>
            </g>
            <g transform="matrix(1,0,0,1,1769,115)">
                <path d="M73.148,60.351L70.116,60.351C70.211,60.133 70.336,59.943 70.494,59.781C70.799,59.468 71.189,59.321 71.659,59.321C72.12,59.321 72.497,59.455 72.78,59.752C72.936,59.917 73.057,60.117 73.148,60.351Z" style="fill:rgb(54,241,255);"/>
            </g>
        </g>
    </g>
</svg>
