<?xml version="1.0" encoding="UTF-8" standalone="no"?>
<!DOCTYPE svg PUBLIC "-//W3C//DTD SVG 1.1//EN" "http://www.w3.org/Graphics/SVG/1.1/DTD/svg11.dtd">
<svg width="100%" height="100%" viewBox="0 0 160 120" version="1.1" xmlns="http://www.w3.org/2000/svg" xmlns:xlink="http://www.w3.org/1999/xlink" xml:space="preserve" xmlns:serif="http://www.serif.com/" style="fill-rule:evenodd;clip-rule:evenodd;stroke-linejoin:round;stroke-miterlimit:2;">
    <g id="ImportAndMix" transform="matrix(1,0,0,1,-1430,-115)">
        <g id="Path_1" transform="matrix(1,0,0,1,803.402,-220.121)">
            <path d="M683.763,414.121L654.486,414.121C653.586,414.121 652.738,413.767 652.095,413.124C651.452,412.481 651.098,411.633 651.098,410.735C651.098,410.697 651.099,410.658 651.1,410.619L651.101,410.605L651.101,389.513L651.1,389.498C651.099,389.46 651.098,389.421 651.098,389.382C651.098,388.485 651.452,387.637 652.095,386.994C652.738,386.351 653.586,385.997 654.483,385.997L663.597,385.997C664.668,385.998 665.678,386.522 666.297,387.398L666.3,387.403L668.624,390.61C668.932,391.084 669.452,391.366 670.02,391.366C670.041,391.366 670.062,391.366 670.083,391.365L683.749,391.365C684.655,391.405 685.504,391.79 686.142,392.45C686.782,393.112 687.138,393.978 687.145,394.889L687.145,410.604L687.146,410.636C687.147,410.669 687.148,410.703 687.148,410.735C687.148,411.633 686.794,412.481 686.15,413.124C685.507,413.767 684.659,414.121 683.763,414.121ZM652.692,389.521L652.692,410.192C652.69,410.783 652.915,411.346 653.324,411.775C653.729,412.196 654.296,412.439 654.879,412.441L683.364,412.441C683.949,412.439 684.515,412.196 684.919,411.775C685.33,411.345 685.555,410.782 685.552,410.19L685.552,394.912C685.556,394.875 685.557,394.836 685.557,394.792C685.557,393.83 684.774,393.046 683.811,393.046C683.796,393.046 683.78,393.047 683.764,393.047L683.756,393.048L669.561,393.048C668.896,393.028 668.285,392.711 667.885,392.178L665.556,388.963L665.552,388.957C664.967,388.174 664.07,387.71 663.093,387.683L654.477,387.683C653.482,387.702 652.682,388.526 652.692,389.521Z" style="fill:rgb(175,87,222);fill-rule:nonzero;"/>
            <path d="M654.483,386.497C653.72,386.497 652.997,386.799 652.449,387.347C651.9,387.896 651.598,388.619 651.598,389.382C651.598,389.416 651.599,389.45 651.6,389.483L651.6,389.491C651.601,389.5 651.601,389.51 651.601,389.52L651.601,410.598C651.601,410.608 651.601,410.617 651.6,410.627L651.6,410.634C651.599,410.668 651.598,410.702 651.598,410.735C651.598,411.499 651.9,412.222 652.449,412.77C652.997,413.319 653.72,413.621 654.486,413.621L683.763,413.621C684.526,413.621 685.248,413.319 685.797,412.77C686.346,412.222 686.648,411.499 686.648,410.735C686.648,410.707 686.647,410.678 686.646,410.649L686.645,410.622L686.645,394.889C686.638,394.109 686.332,393.366 685.782,392.797C685.236,392.233 684.511,391.902 683.738,391.865L670.092,391.865C669.331,391.89 668.627,391.523 668.212,390.894L665.895,387.697C665.893,387.693 665.891,387.69 665.888,387.687C665.363,386.943 664.506,386.498 663.597,386.497L654.483,386.497M668.287,391.881C668.594,392.288 669.06,392.531 669.569,392.548L683.746,392.548C683.768,392.547 683.79,392.546 683.811,392.546C685.049,392.546 686.057,393.554 686.057,394.792C686.057,394.841 686.056,394.886 686.052,394.931L686.052,410.188C686.055,410.91 685.782,411.597 685.28,412.122C684.783,412.64 684.085,412.938 683.364,412.941L654.877,412.941C654.159,412.938 653.462,412.64 652.963,412.12C652.463,411.597 652.189,410.911 652.192,410.192L652.192,389.524C652.18,388.256 653.2,387.207 654.468,387.183L663.106,387.183C664.238,387.214 665.275,387.751 665.952,388.658C665.955,388.662 665.958,388.666 665.961,388.67L668.287,391.881M654.483,385.497L663.597,385.497C664.833,385.498 665.993,386.101 666.705,387.11L669.037,390.328C669.261,390.68 669.656,390.884 670.073,390.865L683.76,390.865C685.906,390.954 687.629,392.735 687.645,394.885L687.645,410.598C687.646,410.643 687.648,410.69 687.648,410.735C687.648,412.867 685.893,414.621 683.763,414.621L654.483,414.621C652.353,414.621 650.598,412.867 650.598,410.735C650.598,410.69 650.599,410.643 650.601,410.598L650.601,389.52C650.599,389.475 650.598,389.428 650.598,389.382C650.598,387.251 652.353,385.497 654.483,385.497ZM683.758,393.548L669.554,393.548C668.736,393.526 667.972,393.13 667.482,392.474L665.151,389.256C664.662,388.601 663.898,388.205 663.079,388.183L654.486,388.183C653.767,388.196 653.183,388.797 653.192,389.519L653.192,410.192C653.19,410.652 653.368,411.096 653.686,411.429C653.998,411.755 654.429,411.939 654.881,411.941L683.364,411.941C683.815,411.939 684.246,411.755 684.559,411.429C684.877,411.096 685.054,410.652 685.052,410.192L685.052,394.889C685.056,394.857 685.057,394.825 685.057,394.792C685.057,394.109 684.494,393.546 683.811,393.546C683.794,393.546 683.776,393.548 683.758,393.548Z" style="fill:rgb(175,87,222);fill-rule:nonzero;"/>
        </g>
        <g id="Path_1-2" transform="matrix(1,0,0,1,805.155,-212.042)">
            <path d="M682.963,405.962L653.17,403.364L653.15,403.362L653.129,403.362C652.815,403.361 652.51,403.231 652.293,403.004C652.098,402.8 651.977,402.541 651.946,402.263L660.031,390.983L660.052,390.955L660.068,390.923C660.511,390.074 661.362,389.88 662,389.867L670.581,389.867C671.247,389.887 671.858,390.203 672.258,390.737L674.586,393.952L674.591,393.958C675.176,394.741 676.073,395.205 677.05,395.232L677.06,395.232L692.997,395.334L692.998,395.334C693.017,395.334 693.033,395.333 693.049,395.333L693.064,395.332C693.119,395.331 693.172,395.331 693.223,395.331C693.758,395.331 694.003,395.39 694.106,395.429C694.041,395.578 693.85,395.832 693.74,395.98C693.698,396.035 693.656,396.091 693.615,396.148C693.599,396.163 685.137,404.352 685.137,404.352C684.804,404.665 684.562,404.879 684.368,405.051C684.133,405.261 683.962,405.412 683.778,405.605C683.566,405.826 683.269,405.956 682.963,405.962Z" style="fill:rgb(175,87,222);fill-rule:nonzero;"/>
            <path d="M662.005,390.367C661.279,390.382 660.776,390.647 660.511,391.155C660.49,391.196 660.465,391.236 660.438,391.275L652.481,402.375C652.517,402.48 652.575,402.577 652.653,402.658C652.777,402.787 652.951,402.862 653.13,402.862C653.158,402.862 653.186,402.864 653.214,402.866L682.975,405.461C683.142,405.452 683.302,405.379 683.416,405.26C683.615,405.052 683.801,404.887 684.036,404.677C684.228,404.508 684.465,404.296 684.792,403.989L693.213,395.85C693.213,395.849 693.214,395.849 693.214,395.848C693.218,395.842 693.223,395.837 693.227,395.831L693.223,395.831C693.175,395.831 693.125,395.831 693.074,395.832C693.05,395.833 693.025,395.834 693.001,395.834L692.994,395.834L677.057,395.732C677.05,395.732 677.043,395.732 677.036,395.731C675.905,395.701 674.868,395.164 674.19,394.257C674.187,394.253 674.184,394.249 674.181,394.245L671.855,391.033C671.549,390.626 671.082,390.384 670.573,390.367L662.005,390.367M661.995,389.367L670.588,389.367C671.407,389.389 672.171,389.785 672.66,390.44L674.991,393.658C675.481,394.314 676.245,394.71 677.063,394.732L693.001,394.834C693.019,394.834 693.036,394.832 693.054,394.832C695.5,394.784 694.499,395.767 693.974,396.504C693.974,396.498 693.974,396.49 693.972,396.506L685.482,404.713C684.75,405.402 684.457,405.618 684.139,405.951C683.827,406.276 683.395,406.461 682.944,406.462L653.127,403.862C652.675,403.861 652.245,403.676 651.932,403.351C651.614,403.018 651.437,402.574 651.438,402.113L659.625,390.692C660.191,389.607 661.275,389.38 661.995,389.367Z" style="fill:rgb(175,87,222);fill-rule:nonzero;"/>
        </g>
        <g id="Path_198" transform="matrix(1,0,0,1,1520,183)">
            <g opacity="0.6">
                <path d="M3,0L49,0C50.097,-0 51,0.903 51,2L51,10C51,11.097 50.097,12 49,12L3,12L3,0Z" style="fill:rgb(175,87,222);fill-rule:nonzero;"/>
            </g>
        </g>
        <g id="Path_197" transform="matrix(1,0,0,1,1520,169)">
            <g opacity="0.4">
                <path d="M3,0L49,0C50.097,-0 51,0.903 51,2L51,10C51,11.097 50.097,12 49,12L3,12L3,0Z" style="fill:rgb(175,87,222);fill-rule:nonzero;"/>
            </g>
        </g>
        <g id="Path_199" transform="matrix(1,0,0,1,1512,151)">
            <g opacity="0.2">
                <path d="M0,0L42,0C43.097,-0 44,0.903 44,2L44,10C44,11.097 43.097,12 42,12L0,12L0,0Z" style="fill:rgb(175,87,222);fill-rule:nonzero;"/>
            </g>
        </g>
        <g id="Rectangle_797" transform="matrix(1,0,0,1,1506,183)">
            <path d="M2,0L15,0L15,12L2,12C0.903,12 0,11.097 0,10L0,2C-0,0.903 0.903,0 2,0Z" style="fill:rgb(175,87,222);fill-rule:nonzero;"/>
        </g>
        <g id="Rectangle_801" transform="matrix(1,0,0,1,1506,169)">
            <path d="M2,0L15,0L15,12L2,12C0.903,12 0,11.097 0,10L0,2C-0,0.903 0.903,0 2,0Z" style="fill:rgb(175,87,222);fill-rule:nonzero;"/>
        </g>
        <g id="Rectangle_803" transform="matrix(1,0,0,1,1495,151)">
            <path d="M2,0L15,0L15,12L2,12C0.903,12 0,11.097 0,10L0,2C-0,0.903 0.903,0 2,0Z" style="fill:rgb(175,87,222);fill-rule:nonzero;"/>
        </g>
        <g transform="matrix(1,0,0,1,451.7,90.592)">
            <g id="DragNDropArrow">
                <g id="Group_144">
                    <g id="Group_143">
                        <path id="Path_165" d="M1035.01,63.216C1035.14,63.212 1035.27,63.219 1035.4,63.237L1035.4,58.408L1045.64,66.132L1035.4,73.756L1035.4,68.462C1034.98,68.352 1034.55,68.309 1034.12,68.332C1029.93,68.43 1026.3,71.364 1025.32,75.446C1025.11,74.673 1025,73.877 1024.99,73.076C1025.03,67.655 1029.5,63.216 1034.92,63.216L1035.01,63.216Z" style="fill:rgb(175,87,222);"/>
                    </g>
                </g>
            </g>
        </g>
    </g>
</svg>
