<?xml version="1.0" encoding="UTF-8" standalone="no"?>
<!DOCTYPE svg PUBLIC "-//W3C//DTD SVG 1.1//EN" "http://www.w3.org/Graphics/SVG/1.1/DTD/svg11.dtd">
<svg width="100%" height="100%" viewBox="0 0 160 120" version="1.1" xmlns="http://www.w3.org/2000/svg" xmlns:xlink="http://www.w3.org/1999/xlink" xml:space="preserve" xmlns:serif="http://www.serif.com/" style="fill-rule:evenodd;clip-rule:evenodd;stroke-linejoin:round;stroke-miterlimit:2;">
    <g id="Interfaces" transform="matrix(1,0,0,1,-1601,-115)">
        <g transform="matrix(1,0,0,1,1281.37,-323.464)">
            <path d="M394.325,487.1L342.938,487.1C342.039,487.1 341.3,487.839 341.3,488.738L341.3,501.204C341.3,502.103 342.039,502.842 342.938,502.842L394.325,502.842C395.224,502.842 395.963,502.103 395.963,501.204L395.963,488.738C395.963,487.839 395.224,487.1 394.325,487.1ZM348.935,498.343C347.085,498.343 345.562,496.82 345.562,494.97C345.562,493.12 347.085,491.597 348.935,491.597C350.785,491.597 352.308,493.12 352.308,494.97C352.303,496.817 350.785,498.336 348.938,498.343L348.935,498.343ZM358.001,498.343C356.151,498.343 354.628,496.82 354.628,494.97C354.628,493.12 356.151,491.597 358.001,491.597C359.851,491.597 361.374,493.12 361.374,494.97C361.369,496.819 359.849,498.339 358,498.343L358.001,498.343ZM372.331,499.289C372.327,499.542 372.12,499.749 371.867,499.753L366.781,499.753C366.528,499.749 366.321,499.542 366.317,499.289L366.317,496.719C366.321,496.466 366.528,496.259 366.781,496.255L371.867,496.255C372.12,496.259 372.327,496.466 372.331,496.719L372.331,499.289ZM372.331,493.221C372.327,493.474 372.12,493.681 371.867,493.685L366.781,493.685C366.528,493.681 366.321,493.474 366.317,493.221L366.317,490.651C366.321,490.398 366.528,490.191 366.781,490.187L371.867,490.187C372.12,490.191 372.327,490.398 372.331,490.651L372.331,493.221ZM377.257,499.753L376.24,499.753L376.24,490.205L377.257,490.205L377.257,499.753ZM378.792,499.753L377.775,499.753L377.775,490.205L378.792,490.205L378.792,499.753ZM386.323,499.753C383.709,499.753 381.558,497.602 381.558,494.988C381.558,492.374 383.709,490.223 386.323,490.223C388.937,490.223 391.088,492.374 391.088,494.988C391.089,497.601 388.939,499.752 386.326,499.753L386.323,499.753Z" style="fill:rgb(255,186,92);fill-rule:nonzero;"/>
        </g>
        <g transform="matrix(1,0,0,1,1509.61,-525.822)">
            <path d="M240.224,711L102.559,711C101.102,711.004 99.904,712.202 99.9,713.659L99.9,724.081C99.904,725.538 101.102,726.736 102.559,726.74L240.224,726.74C241.681,726.736 242.879,725.538 242.883,724.081L242.883,713.659C242.879,712.202 241.681,711.004 240.224,711ZM109.84,722.243C107.99,722.243 106.467,720.72 106.467,718.87C106.467,717.02 107.99,715.497 109.84,715.497C111.69,715.497 113.213,717.02 113.213,718.87C113.208,720.719 111.689,722.238 109.84,722.243ZM121.94,722.243C120.09,722.243 118.567,720.72 118.567,718.87C118.567,717.02 120.09,715.497 121.94,715.497C123.79,715.497 125.313,717.02 125.313,718.87C125.308,720.719 123.789,722.238 121.94,722.243ZM134.04,722.243C132.19,722.243 130.667,720.72 130.667,718.87C130.667,717.02 132.19,715.497 134.04,715.497C135.89,715.497 137.413,717.02 137.413,718.87C137.408,720.719 135.889,722.238 134.04,722.243ZM146.14,722.243C144.29,722.243 142.767,720.72 142.767,718.87C142.767,717.02 144.29,715.497 146.14,715.497C147.99,715.497 149.513,717.02 149.513,718.87C149.508,720.719 147.988,722.239 146.139,722.243L146.14,722.243ZM158.24,722.243C156.39,722.243 154.867,720.72 154.867,718.87C154.867,717.02 156.39,715.497 158.24,715.497C160.09,715.497 161.613,717.02 161.613,718.87C161.608,720.719 160.088,722.239 158.239,722.243L158.24,722.243ZM170.34,722.243C168.49,722.243 166.967,720.72 166.967,718.87C166.967,717.02 168.49,715.497 170.34,715.497C172.19,715.497 173.713,717.02 173.713,718.87C173.708,720.719 172.187,722.239 170.338,722.243L170.34,722.243ZM182.44,722.243C180.59,722.243 179.067,720.72 179.067,718.87C179.067,717.02 180.59,715.497 182.44,715.497C184.29,715.497 185.813,717.02 185.813,718.87C185.808,720.719 184.287,722.239 182.438,722.243L182.44,722.243ZM194.54,722.243C192.69,722.243 191.167,720.72 191.167,718.87C191.167,717.02 192.69,715.497 194.54,715.497C196.39,715.497 197.913,717.02 197.913,718.87C197.908,720.719 196.387,722.239 194.538,722.243L194.54,722.243ZM208.246,723.189C208.242,723.442 208.035,723.649 207.782,723.653L202.696,723.653C202.443,723.649 202.236,723.442 202.232,723.189L202.232,720.619C202.236,720.366 202.443,720.159 202.696,720.155L207.782,720.155C208.035,720.159 208.242,720.366 208.246,720.619L208.246,723.189ZM208.246,717.121C208.242,717.374 208.035,717.581 207.782,717.585L202.696,717.585C202.443,717.581 202.236,717.374 202.232,717.121L202.232,714.551C202.236,714.298 202.443,714.091 202.696,714.087L207.782,714.087C208.035,714.091 208.242,714.298 208.246,714.551L208.246,717.121ZM216.366,723.189C216.362,723.442 216.155,723.649 215.902,723.653L210.816,723.653C210.563,723.649 210.356,723.442 210.352,723.189L210.352,720.619C210.356,720.366 210.563,720.159 210.816,720.155L215.9,720.155C216.153,720.159 216.36,720.366 216.364,720.619L216.366,723.189ZM216.366,717.121C216.362,717.374 216.155,717.581 215.902,717.585L210.816,717.585C210.563,717.581 210.356,717.374 210.352,717.121L210.352,714.551C210.356,714.298 210.563,714.091 210.816,714.087L215.9,714.087C216.153,714.091 216.36,714.298 216.364,714.551L216.366,717.121ZM222.041,723.653L221.024,723.653L221.024,714.105L222.041,714.105L222.041,723.653ZM223.576,723.653L222.559,723.653L222.559,714.105L223.576,714.105L223.576,723.653ZM232.356,723.653C229.742,723.653 227.591,721.502 227.591,718.888C227.591,716.274 229.742,714.123 232.356,714.123C234.97,714.123 237.121,716.274 237.121,718.888L237.121,718.889C237.121,721.502 234.97,723.653 232.357,723.653L232.353,723.653L232.356,723.653Z" style="fill:rgb(255,186,92);fill-rule:nonzero;"/>
        </g>
        <g transform="matrix(1,0,0,1,5300.8,307.466)">
            <path d="M-3561.73,-137.05L-3616.39,-137.05L-3616.39,-157.126C-3616.39,-158.012 -3615.35,-158.732 -3614.07,-158.732L-3564.05,-158.732C-3562.77,-158.732 -3561.73,-158.011 -3561.73,-157.126L-3561.73,-137.05ZM-3569.8,-152.966C-3572.27,-152.966 -3574.3,-150.935 -3574.3,-148.466C-3574.3,-145.997 -3572.27,-143.966 -3569.8,-143.966C-3567.33,-143.969 -3565.31,-145.998 -3565.3,-148.466C-3565.31,-150.933 -3567.33,-152.962 -3569.8,-152.966ZM-3580.34,-151.559L-3580.34,-145.009L-3579.33,-145.009L-3579.33,-151.559L-3580.34,-151.559ZM-3581.88,-151.559L-3581.88,-145.009L-3580.86,-145.009L-3580.86,-151.559L-3581.88,-151.559ZM-3602.03,-151.559L-3602.03,-145.009L-3586.07,-145.009L-3586.07,-151.559L-3602.03,-151.559ZM-3612,-147.419C-3612.25,-147.419 -3612.47,-147.272 -3612.47,-147.098L-3612.47,-145.331C-3612.47,-145.157 -3612.25,-145.01 -3612,-145.01L-3606.92,-145.01C-3606.66,-145.01 -3606.45,-145.157 -3606.45,-145.331L-3606.45,-147.1C-3606.45,-147.274 -3606.66,-147.421 -3606.92,-147.421L-3612,-147.419ZM-3612,-151.577C-3612.26,-151.577 -3612.47,-151.433 -3612.47,-151.256L-3612.47,-149.49C-3612.47,-149.313 -3612.26,-149.169 -3612,-149.169L-3606.92,-149.169C-3606.66,-149.169 -3606.45,-149.313 -3606.45,-149.49L-3606.45,-151.256C-3606.45,-151.433 -3606.66,-151.577 -3606.92,-151.577L-3612,-151.577Z" style="fill:rgb(255,186,92);fill-rule:nonzero;"/>
        </g>
        <g transform="matrix(1,0,0,1,1343.19,-155.37)">
            <path d="M341.2,326.5L341.2,333.212C341.2,333.847 341.723,334.37 342.358,334.37L394.702,334.37C395.337,334.37 395.86,333.847 395.86,333.212L395.86,326.5L341.2,326.5ZM348.142,332.478C347.173,332.478 346.375,331.68 346.375,330.711C346.375,329.742 347.173,328.944 348.142,328.944C349.111,328.944 349.909,329.742 349.909,330.711L349.909,330.719C349.909,331.684 349.115,332.478 348.15,332.478L348.142,332.478Z" style="fill:rgb(255,186,92);fill-rule:nonzero;"/>
        </g>
    </g>
</svg>
