<?xml version="1.0" encoding="UTF-8" standalone="no"?>
<!DOCTYPE svg PUBLIC "-//W3C//DTD SVG 1.1//EN" "http://www.w3.org/Graphics/SVG/1.1/DTD/svg11.dtd">
<svg width="100%" height="100%" viewBox="0 0 160 120" version="1.1" xmlns="http://www.w3.org/2000/svg" xmlns:xlink="http://www.w3.org/1999/xlink" xml:space="preserve" xmlns:serif="http://www.serif.com/" style="fill-rule:evenodd;clip-rule:evenodd;stroke-linejoin:round;stroke-miterlimit:2;">
    <g transform="matrix(1,0,0,1,36.963,28.699)">
        <g id="PlayNow_Drums">
            <g id="PlayNow_Drums1" serif:id="PlayNow_Drums">
                <g id="Path_95" transform="matrix(1,0,0,1,-232.763,-605.761)">
                    <path d="M302.823,635.691L302.822,635.691C302.443,635.691 302.132,636.002 302.132,636.381L302.132,637.074L301.441,637.074L301.441,630.283L302.133,630.283C302.512,630.283 302.823,629.972 302.823,629.593L302.823,629.576C302.823,629.206 302.518,628.901 302.148,628.901L283.091,628.901C282.712,628.901 282.401,629.212 282.401,629.591L282.401,629.608C282.401,629.978 282.706,630.283 283.076,630.283L283.783,630.283L283.783,633.543C285.489,634.927 286.95,636.588 288.105,638.457L302.132,638.457C302.126,639.2 301.517,639.809 300.774,639.815L288.895,639.815C289.142,640.26 289.339,640.704 289.562,641.173L291.262,641.173L291.262,657.916L288.891,658.904C288.521,659.571 288.125,660.238 287.706,660.88L291.361,659.374C291.55,659.905 292.056,660.262 292.62,660.262C293.185,660.262 293.691,659.905 293.88,659.374L299.165,661.574C298.919,661.837 298.919,662.25 299.165,662.513L299.338,662.686C299.462,662.811 299.631,662.883 299.807,662.886L301.857,662.886C302.231,662.881 302.537,662.572 302.537,662.197C302.537,662.01 302.461,661.831 302.326,661.701L301.091,660.54C300.843,660.307 300.45,660.307 300.202,660.54L293.954,657.947L293.954,641.2L300.745,641.2C302.233,641.196 303.457,639.972 303.461,638.484L303.461,636.433C303.461,636.054 303.15,635.743 302.771,635.743L302.77,635.743L302.823,635.691Z" style="fill:rgb(51,170,255);fill-rule:nonzero;"/>
                </g>
                <g id="Path_96" transform="matrix(1,0,0,1,-81.4,-603.577)">
                    <path d="M84.808,658.693L84.808,649.14L99.18,649.14C99.109,648.459 99.076,647.775 99.08,647.09C99.076,641.953 101.018,637.001 104.513,633.236L104.513,627.383L105.205,627.383C105.584,627.383 105.895,627.072 105.895,626.693L105.895,626.676C105.895,626.306 105.59,626.001 105.22,626.001L82.09,626.001C81.711,626.001 81.4,626.312 81.4,626.691L81.4,626.708C81.4,627.078 81.705,627.383 82.075,627.383L82.782,627.383L82.782,647.783L82.09,647.783C81.711,647.783 81.4,648.094 81.4,648.473L81.4,648.49C81.4,648.86 81.705,649.165 82.075,649.165L83.45,649.165L83.45,658.7L83.449,658.7C83.07,658.7 82.759,659.011 82.759,659.39L82.759,662.101C82.759,662.48 83.07,662.791 83.449,662.791L84.809,662.791C85.188,662.791 85.499,662.48 85.499,662.101L85.499,659.383C85.499,659.004 85.188,658.693 84.809,658.693L84.808,658.693Z" style="fill:rgb(51,170,255);fill-rule:nonzero;"/>
                </g>
                <g id="Path_97" transform="matrix(1,0,0,1,-268.081,-535.2)">
                    <path d="M355.156,542.609C355.156,541.424 345.5,540.041 345.5,540.041C344.902,539.122 343.88,538.564 342.784,538.559L342.784,535.891C342.784,535.512 342.473,535.201 342.094,535.201L342.077,535.201C341.707,535.201 341.402,535.506 341.402,535.876L341.402,538.608C340.407,538.671 339.498,539.203 338.957,540.04C338.416,540.877 329.301,541.423 329.301,542.608L355.156,542.609ZM339.648,578.565L330.536,584.838L330.536,586.2L331.252,586.2C331.674,586.201 332.092,586.125 332.487,585.978L340.834,582.718L343.378,582.718L348.663,584.918C348.418,585.181 348.418,585.593 348.663,585.856L348.836,586.029C348.96,586.154 349.129,586.226 349.305,586.229L351.355,586.229C351.729,586.224 352.035,585.915 352.035,585.54C352.035,585.353 351.959,585.174 351.824,585.044L350.589,583.883C350.34,583.65 349.949,583.65 349.7,583.883L343.452,581.29L343.452,547.967C344.301,547.836 345.051,547.339 345.502,546.609C345.953,545.879 355.158,545.226 355.158,544.041L329.3,544.041C329.3,545.226 338.956,546.609 338.956,546.609C339.337,547.272 339.985,547.74 340.734,547.893L340.734,581.429L332.585,584.837L339.672,579.972L339.672,578.54L339.648,578.565Z" style="fill:rgb(51,170,255);fill-rule:nonzero;"/>
                </g>
                <g id="Path_98" transform="matrix(1,0,0,1,-127.035,-566.226)">
                    <path d="M160.373,577.783L160.374,577.783C160.753,577.783 161.064,577.472 161.064,577.093L161.064,577.075C161.064,576.705 160.76,576.4 160.389,576.4L142.69,576.4C142.311,576.4 142,576.711 142,577.09L142,577.108C142,577.478 142.305,577.783 142.675,577.783L142.691,577.783L142.691,585.266L142.69,585.266C142.311,585.266 142,585.577 142,585.956L142,585.974C142,586.344 142.305,586.649 142.675,586.649L160.374,586.649C160.753,586.649 161.064,586.338 161.064,585.959L161.064,585.941C161.064,585.571 160.76,585.266 160.389,585.266L160.373,585.266L160.373,577.783Z" style="fill:rgb(51,170,255);fill-rule:nonzero;"/>
                </g>
                <g id="Path_99" transform="matrix(1,0,0,1,-209.946,-566.226)">
                    <path d="M252.792,585.266L252.791,585.266C252.412,585.266 252.101,585.577 252.101,585.956L252.101,585.974C252.101,586.344 252.406,586.649 252.776,586.649L267.758,586.649C268.137,586.649 268.448,586.338 268.448,585.959L268.448,585.941C268.448,585.571 268.144,585.266 267.773,585.266L267.757,585.266L267.757,577.783L267.758,577.783C268.137,577.783 268.448,577.472 268.448,577.093L268.448,577.075C268.448,576.705 268.144,576.4 267.773,576.4L252.791,576.4C252.412,576.4 252.101,576.711 252.101,577.09L252.101,577.108C252.101,577.478 252.406,577.783 252.776,577.783L252.792,577.783L252.792,585.266Z" style="fill:rgb(51,170,255);fill-rule:nonzero;"/>
                </g>
                <g id="Path_100" transform="matrix(1,0,0,1,-187.128,-574.66)">
                    <path d="M228.616,588.958L226.566,588.958C226.566,588.213 225.953,587.6 225.208,587.6C224.463,587.6 223.85,588.213 223.85,588.958L221.8,588.958L221.8,590.316L223.85,590.316L223.85,597.848C224.294,597.823 224.764,597.799 225.208,597.799C225.661,597.791 226.115,597.807 226.566,597.848L226.566,590.316L228.616,590.316L228.616,588.958Z" style="fill:rgb(51,170,255);fill-rule:nonzero;"/>
                </g>
                <g id="Rectangle_551" transform="matrix(0.707107,-0.707107,0.707107,0.707107,50.119,56.604)">
                    <rect x="0" y="0" width="1.358" height="7.236" style="fill:rgb(51,170,255);"/>
                </g>
                <g id="Path_101" transform="matrix(1,0,0,1,-247.73,-718.351)">
                    <path d="M305.171,780.928L303.121,780.928C302.945,780.925 302.776,780.853 302.652,780.728L302.479,780.555C302.349,780.429 302.275,780.255 302.275,780.074C302.275,779.892 302.349,779.718 302.479,779.592L303.467,778.604C303.591,778.48 303.76,778.41 303.936,778.41C304.112,778.41 304.281,778.48 304.405,778.604L305.64,779.765C305.775,779.895 305.851,780.074 305.851,780.261C305.851,780.636 305.545,780.945 305.171,780.95L305.171,780.928Z" style="fill:rgb(51,170,255);fill-rule:nonzero;"/>
                </g>
                <g id="Rectangle_552" transform="matrix(0.707107,-0.707107,0.707107,0.707107,20.016,60.759)">
                    <rect x="0" y="0" width="7.236" height="1.358" style="fill:rgb(51,170,255);"/>
                </g>
                <g id="Path_102" transform="matrix(1,0,0,1,-136.476,-718.351)">
                    <path d="M155.219,780.928L157.269,780.928C157.445,780.925 157.614,780.853 157.738,780.728L157.911,780.555C158.041,780.429 158.115,780.255 158.115,780.074C158.115,779.892 158.041,779.718 157.911,779.592L156.923,778.604C156.799,778.48 156.63,778.41 156.454,778.41C156.278,778.41 156.109,778.48 155.985,778.604L154.75,779.765C154.615,779.895 154.539,780.074 154.539,780.261C154.539,780.636 154.845,780.945 155.219,780.95L155.219,780.928Z" style="fill:rgb(51,170,255);fill-rule:nonzero;"/>
                </g>
                <g id="Path_103" transform="matrix(1,0,0,1,-139.535,-609.902)">
                    <path d="M177.64,634.4C167.195,634.4 158.6,642.995 158.6,653.44C158.6,663.885 167.195,672.48 177.64,672.48C188.085,672.48 196.68,663.885 196.68,653.44L196.68,653.434C196.68,642.992 188.088,634.4 177.646,634.4L177.64,634.4ZM177.64,669.1C174.836,669.1 172.528,666.792 172.528,663.988C172.528,661.184 174.836,658.876 177.64,658.876C180.444,658.876 182.752,661.184 182.752,663.988L182.752,663.994C182.752,666.795 180.447,669.1 177.646,669.1L177.64,669.1Z" style="fill:rgb(51,170,255);fill-rule:nonzero;"/>
                </g>
            </g>
        </g>
    </g>
</svg>
