<?xml version="1.0" encoding="UTF-8" standalone="no"?>
<!DOCTYPE svg PUBLIC "-//W3C//DTD SVG 1.1//EN" "http://www.w3.org/Graphics/SVG/1.1/DTD/svg11.dtd">
<svg width="100%" height="100%" viewBox="0 0 160 120" version="1.1" xmlns="http://www.w3.org/2000/svg" xmlns:xlink="http://www.w3.org/1999/xlink" xml:space="preserve" xmlns:serif="http://www.serif.com/" style="fill-rule:evenodd;clip-rule:evenodd;stroke-linejoin:round;stroke-miterlimit:2;">
    <g id="PlayNow_Guitar" transform="matrix(1,0,0,1,-752,-375)">
        <g id="Path_162" transform="matrix(1,0,0,1,682.863,221.176)">
            <path d="M157.779,181.266L157.735,181.222C157.173,181.143 156.621,181.437 156.372,181.947C156.436,182.151 156.533,182.344 156.658,182.518C156.836,182.477 157.012,182.425 157.185,182.364C157.229,182.452 157.251,182.54 157.295,182.65C156.895,182.85 156.526,183.068 156.152,183.265C156.138,183.224 156.116,183.186 156.086,183.155C156.042,183.111 155.998,183.089 155.954,183.045C156.108,182.935 156.262,182.825 156.416,182.693C156.306,182.517 156.196,182.341 156.086,182.144C155.517,182.055 154.952,182.35 154.701,182.869C154.774,183.07 154.87,183.261 154.987,183.44C155.166,183.402 155.342,183.35 155.514,183.286C155.533,183.384 155.563,183.48 155.602,183.572C155.228,183.772 154.855,183.99 154.481,184.187L154.415,184.055C154.371,184.033 154.327,183.989 154.283,183.967C154.437,183.857 154.591,183.747 154.745,183.615C154.642,183.459 154.546,183.298 154.459,183.132C154.393,183.044 154.283,183.066 154.173,183.044C153.956,183.048 153.744,183.109 153.558,183.22C153.369,183.325 153.21,183.476 153.096,183.659C153.074,183.703 153.03,183.747 153.052,183.813C153.113,184.001 153.202,184.179 153.316,184.34C153.498,184.301 153.674,184.242 153.843,184.164C153.839,184.216 153.847,184.269 153.865,184.318C153.865,184.362 153.909,184.406 153.931,184.472C153.557,184.672 153.162,184.89 152.788,185.087C152.727,185.009 152.66,184.935 152.588,184.867C152.742,184.757 152.896,184.647 153.05,184.515C152.953,184.332 152.843,184.155 152.72,183.988C152.549,183.933 152.364,183.933 152.193,183.988C151.828,184.091 151.524,184.346 151.358,184.688C151.422,184.892 151.519,185.085 151.644,185.259C151.82,185.237 151.996,185.149 152.171,185.127C152.21,185.211 152.24,185.3 152.259,185.391C151.885,185.611 151.49,185.809 151.094,186.028C151.027,185.942 150.953,185.861 150.874,185.786C151.03,185.681 151.177,185.563 151.314,185.434C151.198,185.259 151.095,185.075 151.006,184.885C150.572,184.815 150.132,184.973 149.841,185.303C149.742,185.39 149.672,185.505 149.641,185.633C149.707,185.826 149.795,186.01 149.905,186.182C150.088,186.161 150.267,186.109 150.432,186.028C150.459,186.134 150.496,186.237 150.542,186.336C150.168,186.536 149.817,186.736 149.442,186.929C149.381,186.844 149.314,186.763 149.242,186.687C149.396,186.577 149.55,186.467 149.704,186.335C149.594,186.159 149.504,185.961 149.396,185.808C149.269,185.755 149.128,185.747 148.996,185.786C148.609,185.849 148.266,186.073 148.051,186.401C148.029,186.445 147.985,186.489 148.007,186.533C148.059,186.724 148.149,186.904 148.271,187.06C148.449,187.019 148.625,186.967 148.798,186.906C148.821,187.013 148.858,187.116 148.908,187.214C148.578,187.39 148.271,187.566 147.941,187.741C147.669,187.85 147.47,188.09 147.414,188.378C147.37,188.778 147.546,189.147 147.414,189.543C147.335,189.735 147.206,189.902 147.04,190.026C146.249,190.795 145.48,191.564 144.688,192.312C143.809,193.169 142.93,194.048 142.051,194.883C141.414,195.498 140.798,196.114 140.161,196.729C139.282,197.542 138.447,198.399 137.59,199.234L135.348,201.41C134.535,202.179 133.766,202.948 132.974,203.74C132.117,204.553 131.26,205.388 130.425,206.223C129.458,207.146 128.513,208.091 127.568,209.014C126.755,209.783 125.968,210.614 125.129,211.387C124.953,211.541 124.799,211.787 124.536,211.827C124.285,211.91 124.007,211.851 123.811,211.673C123.548,211.378 123.36,211.023 123.262,210.64C123.018,209.826 122.694,209.038 122.295,208.288C122.334,208.33 122.379,208.367 122.427,208.398C122.493,208.332 122.471,208.244 122.449,208.156L122.405,208.112L122.537,208.002L122.603,208.09C122.757,208.134 122.933,208.156 123.087,208.2C123.096,208.124 123.081,208.047 123.043,207.98C122.893,207.7 122.717,207.435 122.516,207.189C122.469,207.121 122.397,207.073 122.316,207.057C122.262,207.242 122.239,207.435 122.25,207.628L122.118,207.716C122.073,207.7 122.034,207.669 122.008,207.628L121.942,207.562L121.876,207.606C121.883,207.659 121.898,207.711 121.92,207.76C121.618,207.371 121.245,207.042 120.82,206.793C120.095,206.371 119.235,206.245 118.42,206.441C117.822,206.609 117.274,206.918 116.82,207.341C116.092,208.032 115.477,208.833 114.996,209.714C114.644,210.344 114.336,210.998 114.073,211.67C113.783,212.482 113.36,213.24 112.82,213.912C112.222,214.649 111.471,215.249 110.62,215.67C110.003,215.951 109.372,216.2 108.73,216.417C107.411,216.879 106.115,217.317 104.84,217.867C103.343,218.467 101.966,219.33 100.774,220.416C99.846,221.286 99.164,222.385 98.796,223.603C98.467,224.79 98.398,226.035 98.596,227.251C98.688,227.779 98.858,228.29 99.101,228.767C99.53,229.618 100.038,230.427 100.617,231.184C101.452,232.26 102.347,233.287 103.298,234.261C103.474,234.437 103.65,234.635 103.847,234.81C103.781,234.788 103.693,234.744 103.627,234.81C103.87,235.02 104.098,235.248 104.308,235.491C104.374,235.425 104.33,235.359 104.308,235.291C104.835,235.862 105.429,236.412 106,236.939C107.209,238.109 108.551,239.132 110,239.988C110.681,240.382 111.437,240.629 112.22,240.713C113.382,240.816 114.553,240.697 115.67,240.361C116.533,240.074 117.336,239.633 118.043,239.061C119.24,238.032 120.212,236.768 120.9,235.347C121.65,233.828 122.289,232.258 122.812,230.647C122.966,230.163 123.212,229.702 123.405,229.24C123.759,228.448 124.242,227.72 124.834,227.086C125.55,226.397 126.393,225.853 127.317,225.486C127.998,225.2 128.68,224.915 129.339,224.563C130.414,224.045 131.371,223.311 132.152,222.409C132.69,221.789 133.006,221.008 133.052,220.189C133.066,219.809 132.904,219.444 132.612,219.2C132.269,218.936 131.821,218.846 131.403,218.958C130.883,219.115 130.382,219.329 129.909,219.595C129.296,219.908 128.635,220.116 127.953,220.21C127.699,220.254 127.438,220.254 127.184,220.21C126.531,220.173 125.914,219.9 125.448,219.441C125.077,219.022 124.928,218.45 125.048,217.903C125.136,217.448 125.34,217.024 125.641,216.672C126.322,215.991 127.004,215.265 127.685,214.584C128.103,214.166 128.498,213.749 128.916,213.331C129.751,212.452 130.608,211.617 131.421,210.738C131.883,210.276 132.321,209.815 132.784,209.353C133.575,208.496 134.41,207.683 135.223,206.826C135.948,206.057 136.717,205.31 137.465,204.54C138.124,203.859 138.806,203.199 139.443,202.496C140.08,201.837 140.743,201.177 141.377,200.518C142.234,199.618 143.113,198.76 143.97,197.859C144.651,197.178 145.333,196.496 145.992,195.793C146.692,195.068 147.399,194.365 148.08,193.639C148.52,193.177 148.98,192.716 149.421,192.276C150.132,191.494 150.972,190.84 151.904,190.342C152.475,190.034 153.091,189.771 153.684,189.507C154.456,189.186 155.153,188.707 155.728,188.1C156.079,187.702 156.348,187.239 156.519,186.737C156.585,186.537 156.607,186.275 156.783,186.144C157.201,185.792 157.794,185.858 158.277,185.682C158.749,185.526 159.138,185.185 159.354,184.737C159.595,184.25 159.619,183.683 159.42,183.177C159.337,182.981 159.217,182.802 159.068,182.65C158.922,182.494 158.741,182.373 158.541,182.298C158.296,182.228 158.035,182.236 157.794,182.32C157.772,182.276 157.728,182.21 157.706,182.166C157.662,182.144 157.618,182.1 157.574,182.078C157.728,181.968 157.882,181.858 158.036,181.726C157.926,181.55 157.836,181.374 157.728,181.199L157.779,181.266Z" style="fill:rgb(51,170,255);fill-rule:nonzero;"/>
        </g>
        <g id="Path_163" transform="matrix(0.707107,0.707107,-0.707107,0.707107,981.348,220.237)">
            <path d="M77.292,261.251L77.292,260.94C77.294,260.84 77.29,260.74 77.28,260.64C77.276,260.448 77.26,260.257 77.23,260.067C77.225,259.975 77.212,259.883 77.193,259.793C77.156,259.482 77.093,259.193 77.044,258.922C77.019,258.835 77.007,258.735 76.982,258.648C76.977,258.605 76.965,258.563 76.945,258.524C76.938,258.481 76.926,258.439 76.908,258.399C76.846,258.15 76.784,257.914 76.721,257.699C76.719,257.664 76.71,257.631 76.696,257.599L76.621,257.338L76.584,257.214C76.576,257.172 76.563,257.13 76.547,257.09L76.472,256.829C76.41,256.605 76.335,256.368 76.26,256.144C76.26,256.107 76.235,256.082 76.223,256.044C75.674,254.557 75.051,253.099 74.356,251.675C74.182,251.302 74.02,250.928 73.846,250.567C73.585,249.982 73.346,249.409 73.146,248.862C72.616,247.335 72.496,245.695 72.797,244.107C73.191,242.284 73.346,240.418 73.258,238.555C73.256,238.5 73.247,238.446 73.233,238.393C73.089,236.795 72.14,235.376 70.718,234.634C70.666,234.61 70.616,234.581 70.569,234.547C70.529,234.524 70.488,234.503 70.445,234.485L70.395,234.46C70.37,234.46 70.345,234.435 70.32,234.423C70.301,234.42 70.284,234.411 70.27,234.398C70.245,234.398 70.22,234.373 70.195,234.373C70.17,234.373 70.158,234.361 70.133,234.348C70.083,234.331 70.034,234.315 69.984,234.298L69.759,234.223C69.732,234.22 69.707,234.212 69.684,234.198L69.609,234.173C69.559,234.156 69.51,234.14 69.46,234.123L69.385,234.098C69.355,234.094 69.326,234.085 69.298,234.073L69.223,234.073L69.136,234.036L69.049,234.036L68.964,234C68.906,233.992 68.848,233.983 68.79,233.975L68.7,233.975L68.613,233.95L68.513,233.95L68.426,233.925L68.326,233.925L68.239,233.9L67.865,233.85L67.665,233.825L67.354,233.825C67.334,233.806 67.306,233.796 67.279,233.8L67.079,233.8L66.955,233.775L66.681,233.775L66.557,233.75L66.072,233.75L65.923,233.725L65.462,233.725L65.3,233.7L64.852,233.7C64.852,233.451 64.852,233.09 64.84,232.629L64.84,231.7C64.753,225.115 64.554,206.928 64.603,206.442C64.68,205.969 64.945,205.547 65.337,205.272C65.427,205.211 65.49,205.117 65.511,205.011L65.511,203.965L65.623,203.965C65.646,204.296 65.927,204.554 66.258,204.55C66.322,204.55 66.386,204.537 66.445,204.513C66.504,204.49 66.556,204.451 66.594,204.401L66.619,204.376C66.655,204.333 66.689,204.287 66.719,204.239C66.793,204.092 66.831,203.93 66.831,203.766C66.836,203.571 66.78,203.379 66.669,203.218C66.621,203.158 66.567,203.104 66.507,203.056C66.438,203.016 66.362,202.991 66.283,202.981L66.221,202.981C65.907,202.983 65.65,203.24 65.648,203.554L65.524,203.554L65.524,201.176L65.661,201.176C65.684,201.507 65.965,201.765 66.296,201.761C66.36,201.761 66.424,201.748 66.483,201.724C66.542,201.701 66.594,201.662 66.632,201.612L66.657,201.587C66.693,201.544 66.727,201.498 66.757,201.45C66.831,201.303 66.869,201.141 66.869,200.977C66.869,200.529 66.62,200.218 66.321,200.193L66.259,200.193C65.945,200.195 65.688,200.452 65.686,200.766L65.537,200.766L65.537,198.388L65.7,198.388C65.723,198.719 66.004,198.977 66.335,198.973C66.399,198.973 66.463,198.96 66.522,198.936C66.581,198.913 66.633,198.874 66.671,198.824L66.696,198.799C66.732,198.756 66.766,198.71 66.796,198.662C66.87,198.515 66.908,198.353 66.908,198.189C66.93,197.91 66.802,197.639 66.572,197.479C66.508,197.44 66.435,197.418 66.36,197.417L66.3,197.417C66.193,197.415 66.089,197.445 66,197.504C65.911,197.559 65.838,197.636 65.788,197.728C65.752,197.811 65.726,197.899 65.713,197.989L65.539,197.989L65.539,196.134C65.539,195.985 65.377,196.022 65.377,196.022C65.243,196.026 65.109,196.018 64.977,195.997C64.865,195.977 64.757,195.943 64.653,195.897C64.205,195.697 64.23,195.586 63.943,195.548L63.9,195.548C63.776,195.523 63.676,195.511 63.589,195.498C63.465,195.473 63.34,195.448 63.216,195.411C63.1,195.362 62.979,195.324 62.855,195.299L62.818,195.299C62.694,195.324 62.573,195.362 62.457,195.411C62.333,195.448 62.208,195.473 62.084,195.498C61.996,195.506 61.909,195.518 61.823,195.535L61.723,195.535C61.437,195.585 61.474,195.697 61.013,195.896C60.907,195.937 60.799,195.97 60.689,195.996C60.557,196.017 60.423,196.025 60.289,196.021C60.155,196.017 60.115,195.984 60.115,196.133L60.115,197.988L59.953,197.988C59.948,197.919 59.931,197.851 59.903,197.788C59.865,197.679 59.79,197.586 59.691,197.527C59.594,197.464 59.482,197.429 59.367,197.427L59.3,197.427C59.225,197.428 59.152,197.45 59.088,197.489C58.858,197.649 58.73,197.92 58.752,198.199C58.752,198.363 58.79,198.525 58.864,198.672C58.864,198.697 58.889,198.709 58.901,198.734L58.926,198.759C58.938,198.771 58.951,198.796 58.963,198.809L58.988,198.834C59.029,198.882 59.08,198.92 59.137,198.946C59.196,198.97 59.26,198.983 59.324,198.983C59.655,198.987 59.936,198.729 59.959,198.398L60.108,198.398L60.108,200.776L59.971,200.776C59.964,200.467 59.707,200.216 59.398,200.216L59.336,200.216C59.036,200.241 58.788,200.54 58.788,201C58.788,201.164 58.826,201.326 58.9,201.473C58.9,201.498 58.925,201.51 58.937,201.535L58.962,201.56C58.974,201.572 58.987,201.597 58.999,201.61L59.024,201.635C59.065,201.683 59.116,201.721 59.173,201.747C59.232,201.771 59.296,201.784 59.36,201.784C59.693,201.791 59.976,201.532 60,201.2L60.124,201.2L60.124,203.578L60.012,203.578C60.005,203.269 59.748,203.018 59.439,203.018L59.377,203.018C59.196,203.034 59.036,203.142 58.954,203.304C58.869,203.457 58.826,203.629 58.83,203.804C58.83,203.968 58.868,204.13 58.942,204.277C58.942,204.302 58.967,204.314 58.979,204.339L59.004,204.364C59.016,204.376 59.029,204.401 59.041,204.414L59.066,204.439C59.107,204.487 59.158,204.525 59.215,204.551C59.274,204.575 59.338,204.588 59.402,204.588C59.733,204.592 60.014,204.334 60.037,204.003L60.149,204.003L60.149,205.049C60.179,205.155 60.245,205.247 60.336,205.31C60.732,205.582 60.998,206.005 61.07,206.48C61.12,206.953 60.921,225.14 60.833,231.738L60.833,232.672C60.833,233.133 60.821,233.494 60.821,233.743L60.211,233.743L59.95,233.768L59.539,233.768L59.39,233.793L58.905,233.793L58.781,233.818L58.581,233.818L58.506,233.843L58.382,233.843C58.357,233.843 58.332,233.855 58.307,233.855L58.107,233.855C58.073,233.875 58.034,233.884 57.995,233.88L57.795,233.905L57.421,233.955L57.334,233.955L57.234,233.98L57.147,233.98L57.047,234.005L56.873,234.03C56.815,234.038 56.757,234.047 56.699,234.055L56.612,234.055L56.525,234.092L56.438,234.092L56.363,234.129C56.333,234.133 56.304,234.142 56.276,234.154L56.201,234.179C56.151,234.196 56.102,234.212 56.052,234.229L55.977,234.254C55.95,234.257 55.925,234.265 55.902,234.279L55.677,234.354C55.627,234.371 55.578,234.387 55.528,234.404C55.503,234.404 55.491,234.416 55.466,234.429C55.441,234.442 55.416,234.454 55.391,234.454C55.371,234.454 55.353,234.464 55.341,234.479C55.316,234.479 55.291,234.504 55.266,234.516L55.216,234.541C55.179,234.566 55.141,234.578 55.104,234.603C55.052,234.627 55.002,234.656 54.955,234.69C53.533,235.432 52.584,236.851 52.44,238.449C52.438,238.504 52.429,238.558 52.415,238.611C52.328,240.474 52.483,242.34 52.876,244.163C53.177,245.751 53.057,247.391 52.527,248.918C52.303,249.54 52.027,250.188 51.743,250.847L51.332,251.747C50.637,253.171 50.014,254.629 49.465,256.116C49.465,256.153 49.44,256.178 49.428,256.216C49.353,256.44 49.279,256.677 49.216,256.901L49.141,257.162C49.133,257.204 49.12,257.246 49.104,257.286L49.067,257.411L48.992,257.672C48.99,257.707 48.981,257.74 48.967,257.772C48.905,257.984 48.843,258.22 48.78,258.472C48.755,258.555 48.73,258.638 48.705,258.721C48.68,258.808 48.668,258.895 48.643,258.995C48.578,259.283 48.528,259.573 48.494,259.866C48.482,259.953 48.469,260.053 48.457,260.14C48.432,260.327 48.42,260.513 48.407,260.713C48.409,260.813 48.405,260.913 48.395,261.013L48.395,261.635C48.407,262.099 48.457,262.561 48.544,263.017C48.646,263.574 48.801,264.12 49.005,264.648C49.231,265.25 49.515,265.83 49.851,266.378C50.063,266.737 50.309,267.074 50.585,267.386C50.619,267.43 50.657,267.472 50.697,267.51C50.974,267.799 51.269,268.069 51.581,268.319C51.718,268.431 51.867,268.543 52.017,268.643C52.129,268.718 52.241,268.792 52.341,268.855L52.453,268.93C52.528,268.967 52.602,269.017 52.677,269.055L52.752,269.092C52.804,269.116 52.854,269.145 52.901,269.179C52.926,269.191 52.963,269.216 52.988,269.229C53.038,269.254 53.075,269.279 53.125,269.304C53.175,269.329 53.187,269.341 53.225,269.354C53.263,269.367 53.312,269.391 53.362,269.416L53.462,269.466C53.512,269.491 53.549,269.503 53.599,269.528L53.699,269.578C53.749,269.603 53.786,269.615 53.836,269.64C53.87,269.65 53.903,269.663 53.936,269.677C53.986,269.689 54.023,269.714 54.073,269.727C54.107,269.737 54.14,269.75 54.173,269.764L54.21,269.764L54.297,269.814C54.322,269.814 54.347,269.839 54.384,269.851L54.496,269.888L54.72,269.963L55.056,270.075C55.118,270.087 55.168,270.112 55.23,270.125L55.753,270.274C56.102,270.361 56.453,270.448 56.811,270.511C56.985,270.548 57.16,270.573 57.346,270.611C57.446,270.623 57.558,270.648 57.657,270.661C58.379,270.773 59.089,270.848 59.786,270.898C60.919,270.985 61.786,271.01 62.437,271.01L63.283,271.01C63.93,271.01 64.802,270.985 65.934,270.898C66.619,270.848 67.341,270.774 68.063,270.661C68.163,270.649 68.275,270.624 68.374,270.611C68.548,270.586 68.723,270.549 68.909,270.511C69.258,270.436 69.619,270.362 69.967,270.274C70.141,270.224 70.316,270.187 70.49,270.125C70.552,270.113 70.602,270.088 70.664,270.075L71,269.963L71.224,269.888L71.336,269.851C71.361,269.851 71.386,269.826 71.423,269.814L71.51,269.777L71.547,269.777C71.579,269.755 71.613,269.734 71.647,269.715C71.697,269.703 71.734,269.678 71.784,269.665C71.818,269.655 71.851,269.642 71.884,269.628C71.932,269.613 71.978,269.592 72.021,269.566L72.121,269.516C72.171,269.491 72.208,269.479 72.258,269.454L72.358,269.404C72.408,269.379 72.445,269.367 72.495,269.342C72.545,269.317 72.557,269.305 72.595,269.292C72.633,269.279 72.682,269.242 72.732,269.217C72.762,269.203 72.792,269.186 72.819,269.167C72.871,269.143 72.921,269.114 72.968,269.08L73.043,269.043C73.118,269.006 73.192,268.956 73.267,268.918C73.297,268.904 73.327,268.887 73.354,268.868C73.478,268.793 73.591,268.719 73.703,268.644C73.815,268.569 73.94,268.482 74.052,268.395C74.399,268.131 74.723,267.84 75.023,267.524C75.06,267.487 75.098,267.437 75.135,267.4C75.411,267.088 75.657,266.751 75.869,266.392C76.205,265.844 76.489,265.264 76.715,264.662C76.916,264.133 77.07,263.587 77.176,263.031C77.263,262.575 77.312,262.113 77.325,261.649L77.325,261.338L77.292,261.251ZM65.852,247.4C65.407,247.908 64.842,248.298 64.209,248.533C64.177,248.538 64.147,248.55 64.122,248.57C63.903,248.642 63.678,248.696 63.45,248.732C63.416,248.73 63.382,248.734 63.35,248.744C63.251,248.759 63.15,248.767 63.05,248.769L62.65,248.769C62.55,248.767 62.449,248.759 62.35,248.744C62.316,248.746 62.282,248.742 62.25,248.732C62.022,248.697 61.797,248.643 61.578,248.57C61.546,248.565 61.516,248.553 61.491,248.533C60.858,248.298 60.293,247.908 59.848,247.4C59.676,247.202 59.522,246.989 59.387,246.765C59.322,246.653 59.263,246.536 59.213,246.416C59.176,246.329 59.138,246.242 59.101,246.142C59.079,246.09 59.062,246.036 59.051,245.98C58.802,245.186 58.802,244.334 59.051,243.54C59.063,243.49 59.088,243.428 59.101,243.378C59.138,243.291 59.176,243.191 59.213,243.104C59.263,242.984 59.322,242.867 59.387,242.755C59.519,242.529 59.674,242.316 59.848,242.12C60.293,241.612 60.858,241.222 61.491,240.987C61.523,240.982 61.553,240.97 61.578,240.95C61.797,240.878 62.022,240.824 62.25,240.788C62.284,240.79 62.318,240.786 62.35,240.776C62.449,240.761 62.55,240.753 62.65,240.751L63.05,240.751C63.15,240.753 63.251,240.761 63.35,240.776C63.384,240.774 63.418,240.778 63.45,240.788C63.678,240.823 63.903,240.877 64.122,240.95C64.154,240.955 64.184,240.967 64.209,240.987C64.842,241.222 65.407,241.612 65.852,242.12C66.024,242.318 66.178,242.531 66.313,242.755C66.378,242.867 66.437,242.984 66.487,243.104C66.524,243.191 66.562,243.278 66.599,243.378C66.621,243.43 66.638,243.484 66.649,243.54C66.898,244.334 66.898,245.186 66.649,245.98C66.637,246.03 66.612,246.092 66.599,246.142C66.562,246.229 66.524,246.329 66.487,246.416C66.437,246.536 66.378,246.653 66.313,246.765C66.178,246.989 66.024,247.202 65.852,247.4Z" style="fill:rgb(51,170,255);fill-rule:nonzero;"/>
        </g>
    </g>
</svg>
