<?xml version="1.0" encoding="UTF-8" standalone="no"?>
<!DOCTYPE svg PUBLIC "-//W3C//DTD SVG 1.1//EN" "http://www.w3.org/Graphics/SVG/1.1/DTD/svg11.dtd">
<svg width="100%" height="100%" viewBox="0 0 160 120" version="1.1" xmlns="http://www.w3.org/2000/svg" xmlns:xlink="http://www.w3.org/1999/xlink" xml:space="preserve" xmlns:serif="http://www.serif.com/" style="fill-rule:evenodd;clip-rule:evenodd;stroke-linejoin:round;stroke-miterlimit:2;">
    <g id="PlayNow_ElectricPiano" transform="matrix(1,0,0,1,-750,-245)">
        <g id="Path_104" transform="matrix(1,0,0,1,263.423,-11.872)">
            <path d="M517.824,316.124C517.855,316.313 518.026,316.45 518.217,316.439L613.37,316.439C613.57,316.449 613.745,316.297 613.763,316.098L613.894,315.023C613.9,314.952 613.891,314.88 613.868,314.813L611.114,309.305L610.2,309.305L611.459,312.111C611.479,312.159 611.489,312.21 611.489,312.262C611.489,312.48 611.31,312.66 611.092,312.662L610.62,312.662C610.465,312.653 610.325,312.563 610.253,312.426L608.863,309.279L607.683,309.279L608.889,312.112C608.909,312.16 608.919,312.211 608.919,312.263C608.919,312.481 608.74,312.661 608.522,312.663L608.102,312.663C607.947,312.654 607.807,312.564 607.735,312.427L606.371,309.28L603.8,309.28L604.8,312.139C604.814,312.179 604.822,312.222 604.822,312.264C604.822,312.47 604.652,312.639 604.447,312.639L604.066,312.639C603.902,312.636 603.756,312.531 603.699,312.377L602.676,309.256L601.391,309.256L602.391,312.115C602.405,312.155 602.413,312.198 602.413,312.24C602.413,312.446 602.243,312.615 602.038,312.615L601.631,312.615C601.458,312.612 601.307,312.493 601.264,312.326L600.346,309.231L599.1,309.231L599.913,312.116C599.922,312.149 599.926,312.183 599.926,312.217C599.926,312.428 599.758,312.605 599.546,312.616L599.257,312.616C599.084,312.613 598.933,312.494 598.89,312.327L597.946,309.206L595.4,309.206L596.213,312.091C596.222,312.124 596.226,312.158 596.226,312.192C596.226,312.403 596.058,312.58 595.846,312.591L595.346,312.591C595.163,312.592 595.005,312.457 594.979,312.276L594.245,309.207L592.645,309.207L593.484,312.092C593.495,312.129 593.501,312.167 593.501,312.206C593.501,312.417 593.328,312.591 593.117,312.592L592.697,312.592C592.528,312.579 592.383,312.464 592.33,312.303L591.5,309.2L588.982,309.2L589.664,312.111C589.669,312.137 589.672,312.163 589.672,312.189C589.672,312.405 589.494,312.583 589.278,312.583L588.93,312.583C588.744,312.578 588.583,312.448 588.537,312.268L587.855,309.199L586.439,309.199L586.99,312.137C586.995,312.163 586.998,312.189 586.998,312.215C586.998,312.431 586.82,312.609 586.604,312.609L586.44,312.609C586.252,312.61 586.087,312.478 586.047,312.294L585.47,309.225L584.237,309.225L584.657,312.162C584.659,312.177 584.66,312.193 584.66,312.208C584.66,312.426 584.482,312.606 584.264,312.608L584.028,312.608C583.84,312.609 583.675,312.477 583.635,312.293L583.11,309.224L580.277,309.224L580.828,312.161C580.833,312.187 580.836,312.213 580.836,312.239C580.836,312.455 580.658,312.633 580.442,312.633L580.042,312.633C579.854,312.634 579.689,312.502 579.649,312.318L579.072,309.249L577.656,309.249L578.076,312.186C578.078,312.201 578.079,312.217 578.079,312.232C578.079,312.45 577.901,312.63 577.683,312.632L577.316,312.632C577.128,312.633 576.963,312.501 576.923,312.317L576.423,309.275L575.033,309.275L575.505,312.213C575.51,312.237 575.512,312.261 575.512,312.286C575.512,312.491 575.343,312.66 575.138,312.66C575.129,312.66 575.121,312.66 575.112,312.659L574.797,312.659C574.609,312.66 574.444,312.528 574.404,312.344L573.904,309.302L571.412,309.302L571.779,312.266C571.78,312.275 571.78,312.284 571.78,312.293C571.78,312.509 571.603,312.686 571.387,312.686L571.071,312.686C570.866,312.683 570.695,312.523 570.678,312.319L570.337,309.303L569.337,309.303L569.547,312.293L569.547,312.3C569.547,312.512 569.373,312.686 569.161,312.686L568.806,312.686C568.594,312.686 568.42,312.512 568.42,312.3L568.42,312.293L568.236,309.303L567.108,309.303L567.208,312.293L567.208,312.3C567.208,312.512 567.034,312.686 566.822,312.686L566.651,312.686C566.439,312.686 566.265,312.512 566.265,312.3L566.265,312.293L566.108,309.303L563.984,309.303L564.115,312.267L564.115,312.274C564.115,312.486 563.941,312.66 563.729,312.66L563.505,312.66C563.293,312.66 563.119,312.486 563.119,312.274L563.119,312.267L563.067,309.277L562.044,309.277L562.123,312.267L562.123,312.274C562.123,312.486 561.949,312.66 561.737,312.66L561.487,312.66C561.275,312.66 561.101,312.486 561.101,312.274L561.101,309.277L558.426,309.277L558.426,312.241C558.422,312.455 558.247,312.63 558.033,312.634L557.849,312.634C557.641,312.626 557.475,312.449 557.482,312.241L557.482,309.277L556.118,309.277L556.118,312.319C556.121,312.337 556.123,312.355 556.123,312.374C556.123,312.538 555.993,312.676 555.829,312.686L555.508,312.686C555.281,312.686 555.094,312.499 555.094,312.272L555.094,312.266L555.146,309.302L553.782,309.302L553.834,312.292L553.834,312.299C553.834,312.511 553.66,312.685 553.448,312.685L553.25,312.685C553.038,312.685 552.864,312.511 552.864,312.299L552.864,309.3L550.136,309.3L550.136,312.297C550.136,312.509 549.962,312.683 549.75,312.683L549.343,312.683C549.131,312.683 548.957,312.509 548.957,312.297L548.957,309.3L547.672,309.3L547.672,312.297C547.672,312.509 547.498,312.683 547.286,312.683L546.754,312.683C546.54,312.679 546.365,312.504 546.361,312.29L546.414,309.3L543.634,309.3L543.45,312.316C543.442,312.524 543.265,312.69 543.057,312.683L542.663,312.683C542.447,312.683 542.27,312.506 542.27,312.29C542.27,312.281 542.27,312.272 542.271,312.263L542.455,309.299L541.196,309.299L541.012,312.341C540.981,312.53 540.81,312.667 540.619,312.656L540.252,312.656C540.031,312.642 539.856,312.456 539.856,312.234C539.856,312.217 539.857,312.201 539.859,312.184L540.147,309.273L538.993,309.273L538.6,312.342C538.56,312.526 538.395,312.658 538.207,312.657L537.787,312.657C537.566,312.643 537.391,312.457 537.391,312.235C537.391,312.218 537.392,312.202 537.394,312.185L537.894,309.274L535.16,309.274L534.504,312.343C534.464,312.527 534.299,312.659 534.111,312.658L533.665,312.658C533.444,312.644 533.269,312.458 533.269,312.236C533.269,312.219 533.27,312.203 533.272,312.186L533.954,309.275L532.695,309.275L531.935,312.344C531.882,312.505 531.737,312.62 531.568,312.633L531.175,312.633C530.955,312.628 530.777,312.445 530.777,312.225C530.777,312.204 530.779,312.182 530.782,312.161L531.464,309.276L529.208,309.276L528.208,312.397C528.151,312.551 528.005,312.656 527.841,312.659L527.369,312.659C527.361,312.66 527.353,312.66 527.345,312.66C527.143,312.66 526.977,312.494 526.977,312.292C526.977,312.246 526.986,312.201 527.002,312.159L527.92,309.274L526.845,309.274L525.822,312.395C525.764,312.544 525.615,312.64 525.455,312.631L525.088,312.631C524.87,312.629 524.691,312.449 524.691,312.231C524.691,312.179 524.701,312.128 524.721,312.08L525.744,309.221L524.459,309.221L523.121,312.368C523.054,312.51 522.911,312.602 522.754,312.604L522.154,312.604C521.936,312.602 521.757,312.422 521.757,312.204C521.757,312.152 521.767,312.101 521.787,312.053L522.967,309.194L520.84,309.194C520.624,309.183 520.423,309.31 520.34,309.509L517.35,314.833C517.308,314.904 517.29,314.987 517.298,315.069L517.455,316.013L517.455,316.144L517.824,316.124Z" style="fill:none;fill-rule:nonzero;"/>
        </g>
        <g id="Path_105" transform="matrix(1,0,0,1,246.823,-0.511)">
            <path d="M540.089,294.377C540.247,294.377 540.377,294.247 540.377,294.089C540.377,293.931 540.247,293.801 540.089,293.801C539.931,293.801 539.802,293.93 539.801,294.088C539.802,294.246 539.931,294.375 540.089,294.377Z" style="fill:none;fill-rule:nonzero;"/>
        </g>
        <g id="Path_106" transform="matrix(1,0,0,1,242.323,-0.511)">
            <path d="M546.189,294.377C546.347,294.376 546.476,294.247 546.476,294.089C546.476,293.931 546.346,293.801 546.188,293.801C546.03,293.801 545.901,293.93 545.9,294.088C545.901,294.246 546.031,294.376 546.189,294.377Z" style="fill:none;fill-rule:nonzero;"/>
        </g>
        <g id="Path_107" transform="matrix(1,0,0,1,258.775,5.391)">
            <path d="M523.809,290.783L618.518,290.783C618.957,290.783 619.318,290.422 619.318,289.983C619.318,289.898 619.304,289.814 619.278,289.734L618.178,286.351C618.074,286.02 617.764,285.796 617.417,285.8L524.781,286.141C524.336,286.143 523.97,286.509 523.968,286.954L523.837,288.737C523.837,288.868 523.785,289.13 523.758,289.419C523.627,290.153 523.469,290.862 523.784,290.809L523.809,290.783ZM614.294,288.16C614.301,288.205 614.291,288.252 614.268,288.291C614.223,288.348 614.156,288.384 614.084,288.391L613.743,288.391C613.715,288.393 613.693,288.415 613.691,288.443C613.691,288.469 613.691,288.495 613.743,288.495C613.854,288.525 613.969,288.543 614.084,288.547L614.136,288.547C614.188,288.547 614.215,288.599 614.162,288.647C614.126,288.68 614.08,288.698 614.031,288.699C613.99,288.694 613.95,288.715 613.931,288.752L613.879,288.804L613.879,288.883C613.879,288.909 613.931,288.909 613.958,288.909C613.987,288.912 614.016,288.903 614.037,288.883C614.12,288.837 614.198,288.784 614.273,288.726C614.371,288.648 614.452,288.55 614.509,288.438L614.509,288.412C614.535,288.363 614.535,288.304 614.509,288.255C614.501,288.181 614.52,288.107 614.561,288.045L614.614,287.993C614.666,287.941 614.745,287.993 614.771,288.045L614.771,288.202C614.771,288.255 614.771,288.281 614.797,288.302C614.823,288.323 614.876,288.354 614.897,288.381C614.897,288.381 614.95,288.407 614.95,288.433C614.963,288.442 614.97,288.457 614.97,288.473C614.97,288.488 614.963,288.503 614.95,288.512C614.924,288.538 614.897,288.591 614.871,288.612L614.819,288.712C614.819,288.767 614.864,288.812 614.919,288.812L614.971,288.812C614.991,288.81 615.009,288.801 615.023,288.786C615.052,288.783 615.081,288.792 615.102,288.812L615.102,288.891C615.05,288.943 615.002,288.991 614.945,288.991C614.883,288.995 614.82,288.986 614.761,288.965C614.682,288.913 614.661,288.865 614.682,288.781C614.684,288.742 614.704,288.705 614.735,288.681C614.735,288.655 614.761,288.629 614.761,288.602C614.761,288.55 614.709,288.523 614.682,288.502C614.682,288.502 614.63,288.502 614.63,288.528C614.578,288.58 614.551,288.659 614.499,288.685C614.4,288.825 614.264,288.934 614.106,289C614.022,289.032 613.934,289.05 613.844,289.052C613.768,289.063 613.692,289.022 613.66,288.952C613.62,288.888 613.62,288.806 613.66,288.742C613.688,288.728 613.715,288.71 613.739,288.689C613.759,288.687 613.778,288.678 613.792,288.663L613.792,288.611L613.766,288.611C613.71,288.606 613.657,288.588 613.609,288.559C613.583,288.559 613.557,288.533 613.509,288.507C613.472,288.479 613.45,288.435 613.45,288.389C613.45,288.343 613.472,288.299 613.509,288.271C613.562,288.219 613.609,288.219 613.693,288.192L613.85,288.192C613.992,288.201 614.134,288.183 614.27,288.14L614.296,288.14L614.294,288.16ZM612.594,288.58C612.609,288.468 612.665,288.364 612.751,288.291C612.84,288.199 612.98,288.178 613.092,288.239C613.118,288.239 613.144,288.265 613.144,288.318C613.144,288.371 613.144,288.37 613.092,288.37L613.039,288.37C612.987,288.37 612.908,288.37 612.882,288.422C612.823,288.487 612.788,288.57 612.782,288.658L612.782,288.815C612.796,288.863 612.84,288.896 612.89,288.896C612.918,288.896 612.945,288.886 612.966,288.867C613.021,288.832 613.058,288.775 613.066,288.71C613.062,288.639 613.07,288.568 613.092,288.5C613.111,288.328 613.155,288.159 613.223,288C613.302,287.764 613.38,287.5 613.459,287.239C613.459,287.186 613.511,287.139 613.511,287.082C613.511,287.056 613.564,287.03 613.59,287.03L613.69,287.03C613.742,287.056 613.769,287.082 613.742,287.161C613.69,287.261 613.663,287.371 613.611,287.476C613.521,287.708 613.442,287.944 613.375,288.184C613.318,288.308 613.284,288.441 613.275,288.577L613.275,288.787C613.275,288.839 613.328,288.866 613.375,288.839C613.404,288.842 613.433,288.833 613.454,288.813C613.506,288.813 613.533,288.813 613.554,288.865L613.554,288.918C613.552,288.946 613.529,288.969 613.501,288.97C613.403,289.023 613.284,289.023 613.186,288.97C613.172,288.97 613.16,288.958 613.16,288.944L613.06,288.944C613.019,288.968 612.975,288.986 612.929,288.996C612.807,289.029 612.68,288.959 612.641,288.839C612.615,288.744 612.615,288.645 612.641,288.55L612.594,288.58ZM611.335,288.16L611.335,288.291C611.335,288.317 611.282,288.37 611.204,288.37L610.704,288.37C610.69,288.384 610.681,288.402 610.678,288.422C610.678,288.448 610.678,288.448 610.704,288.448C610.825,288.474 610.95,288.474 611.071,288.448L611.202,288.448C611.228,288.448 611.254,288.448 611.254,288.474L611.254,288.553C611.254,288.553 611.202,288.579 611.202,288.605C611.149,288.605 611.123,288.631 611.071,288.658C611.013,288.667 610.964,288.705 610.94,288.758L610.94,288.81C610.94,288.836 610.966,288.836 610.993,288.836C611.028,288.836 611.063,288.827 611.093,288.81C611.184,288.763 611.271,288.711 611.355,288.653C611.445,288.591 611.542,288.538 611.643,288.496C611.687,288.49 611.731,288.481 611.774,288.47C611.815,288.465 611.855,288.486 611.874,288.523C611.893,288.56 611.874,288.575 611.9,288.575L611.979,288.575C612.025,288.492 612.078,288.414 612.136,288.339C612.182,288.297 612.235,288.263 612.293,288.239C612.338,288.232 612.385,288.242 612.424,288.265C612.437,288.29 612.446,288.316 612.45,288.344C612.454,288.406 612.445,288.469 612.424,288.528C612.422,288.601 612.404,288.673 612.371,288.738L612.371,288.79C612.371,288.816 612.371,288.842 612.424,288.842L612.476,288.842C612.502,288.842 612.528,288.842 612.528,288.895L612.528,288.947C612.503,288.96 612.477,288.969 612.449,288.973L612.311,288.973C612.243,288.973 612.187,288.917 612.187,288.849L612.187,288.554C612.187,288.501 612.161,288.475 612.135,288.501L612.082,288.554C612.03,288.633 611.951,288.711 611.898,288.79C611.873,288.839 611.839,288.884 611.798,288.921C611.745,288.973 611.641,288.921 611.614,288.868L611.614,288.606C611.614,288.58 611.614,288.554 611.562,288.58C611.542,288.582 611.524,288.591 611.51,288.606C611.353,288.706 611.195,288.816 611.064,288.921C611.007,288.973 610.932,289.002 610.854,289L610.849,289C610.748,289 610.665,288.917 610.665,288.816C610.665,288.779 610.676,288.743 610.697,288.712C610.717,288.668 610.753,288.632 610.797,288.612L610.797,288.586L610.771,288.586C610.698,288.584 610.626,288.567 610.561,288.534C610.535,288.534 610.482,288.482 610.461,288.455C610.436,288.381 610.457,288.298 610.514,288.245C610.562,288.216 610.615,288.198 610.671,288.193L610.907,288.193C611.032,288.201 611.157,288.183 611.274,288.14L611.3,288.14L611.335,288.16ZM608.446,288C608.446,287.948 608.498,287.948 608.525,287.9C608.808,287.667 609.116,287.466 609.443,287.3C609.596,287.227 609.753,287.166 609.915,287.116C609.994,287.116 610.046,287.09 610.125,287.09C610.131,287.09 610.136,287.089 610.142,287.089C610.262,287.089 610.362,287.189 610.362,287.309C610.362,287.315 610.361,287.32 610.361,287.326L610.361,287.641C610.361,287.741 610.309,287.851 610.309,287.956C610.309,287.982 610.309,288.008 610.361,287.982C610.492,287.93 610.623,287.903 610.754,287.851L610.78,287.851L610.78,288C610.766,288.014 610.748,288.023 610.728,288.026C610.656,288.034 610.585,288.051 610.518,288.078C610.454,288.083 610.391,288.101 610.334,288.13C610.308,288.13 610.282,288.156 610.255,288.209C610.201,288.414 610.13,288.615 610.045,288.809C609.966,288.993 609.888,289.202 609.809,289.386C609.809,289.438 609.757,289.465 609.709,289.465L609.578,289.465C609.571,289.458 609.567,289.449 609.567,289.439C609.567,289.429 609.571,289.42 609.578,289.413C609.601,289.347 609.635,289.285 609.678,289.229C609.778,289.019 609.888,288.783 609.993,288.547C610.015,288.464 610.049,288.385 610.093,288.311L610.093,288.259L610.067,288.259C610.015,288.259 609.988,288.285 609.936,288.311C609.91,288.311 609.884,288.337 609.836,288.337L609.81,288.337C609.784,288.337 609.758,288.337 609.758,288.311L609.758,288.211C609.76,288.183 609.782,288.161 609.81,288.159C609.91,288.133 610.02,288.059 610.125,288.028C610.181,287.856 610.225,287.681 610.256,287.503L610.256,287.312C610.256,287.244 610.2,287.188 610.132,287.188L610.125,287.188C610.051,287.18 609.977,287.199 609.915,287.241C609.788,287.292 609.665,287.353 609.548,287.425C609.307,287.57 609.087,287.747 608.892,287.95C608.84,288.002 608.761,288.05 608.708,288.107C608.669,288.134 608.616,288.134 608.577,288.107C608.533,288.087 608.497,288.051 608.477,288.007L608.477,287.955L608.446,288ZM551.637,286.872C552.371,286.872 552.975,287.476 552.975,288.21C552.975,288.944 552.371,289.548 551.637,289.548C550.903,289.548 550.299,288.944 550.299,288.21C550.303,287.478 550.905,286.878 551.637,286.875L551.637,286.872ZM541.671,287.239L543.69,287.239L543.69,286.655C543.69,286.587 543.746,286.531 543.814,286.531L544.038,286.531C544.106,286.531 544.162,286.587 544.162,286.655L544.162,287.239L547.624,287.239L547.624,287.527L544.162,287.527L544.162,288.111C544.162,288.179 544.106,288.235 544.038,288.235L543.814,288.235C543.746,288.235 543.69,288.179 543.69,288.111L543.69,287.527L541.67,287.527L541.671,287.239ZM541.671,289.311L545.553,289.311L545.553,288.754C545.553,288.671 545.621,288.603 545.704,288.603L545.926,288.603C546.009,288.603 546.077,288.671 546.077,288.754L546.077,289.311L547.7,289.311L547.7,289.599L546.074,289.599L546.074,290.156C546.074,290.239 546.006,290.307 545.923,290.307L545.701,290.307C545.618,290.307 545.55,290.239 545.55,290.156L545.55,289.6L541.67,289.6L541.671,289.311ZM537.16,287.029C537.894,287.029 538.498,287.633 538.498,288.367C538.498,289.101 537.894,289.705 537.16,289.705C536.426,289.705 535.822,289.101 535.822,288.367C535.827,287.636 536.428,287.036 537.159,287.033L537.16,287.029ZM527.01,287.422C527.012,287.265 527.141,287.136 527.298,287.134L530.629,287.134C530.787,287.135 530.916,287.264 530.918,287.422L530.918,288.943C530.916,289.101 530.787,289.23 530.629,289.231L527.3,289.231C527.143,289.229 527.014,289.1 527.012,288.943L527.01,287.422Z" style="fill:none;fill-rule:nonzero;"/>
        </g>
        <g id="Ellipse_49" transform="matrix(1,0,0,1,794.622,292.424)">
            <circle cx="1.338" cy="1.338" r="1.338" style="fill:rgb(51,170,255);"/>
        </g>
        <g id="Ellipse_50" transform="matrix(1,0,0,1,809.1,292.266)">
            <circle cx="1.338" cy="1.338" r="1.338" style="fill:rgb(51,170,255);"/>
        </g>
        <g id="Path_108" transform="matrix(1,0,0,1,207.797,3.325)">
            <path d="M594.719,289.6L594.719,290.181C594.719,290.249 594.775,290.305 594.843,290.305L595.067,290.305C595.135,290.305 595.191,290.249 595.191,290.181L595.191,289.6L598.653,289.6L598.653,289.311L595.191,289.311L595.191,288.727C595.191,288.659 595.135,288.603 595.067,288.603L594.843,288.603C594.775,288.603 594.719,288.659 594.719,288.727L594.719,289.311L592.7,289.311L592.7,289.6L594.719,289.6Z" style="fill:rgb(51,170,255);fill-rule:nonzero;"/>
        </g>
        <g id="Path_109" transform="matrix(1,0,0,1,207.871,-2.577)">
            <path d="M596.482,297.6L596.482,298.153C596.482,298.236 596.55,298.304 596.633,298.304L596.855,298.304C596.938,298.304 597.006,298.236 597.006,298.153L597.006,297.6L598.632,297.6L598.632,297.311L597.006,297.311L597.006,296.754C597.006,296.671 596.938,296.603 596.855,296.603L596.633,296.603C596.55,296.603 596.482,296.671 596.482,296.754L596.482,297.311L592.6,297.311L592.6,297.6L596.482,297.6Z" style="fill:rgb(51,170,255);fill-rule:nonzero;"/>
        </g>
        <g id="Path_110" transform="matrix(1,0,0,1,272.791,46.851)">
            <path d="M610.008,256.85L607.308,248.562L606.259,245.152C606.099,244.617 606.028,244.058 606.049,243.5L606.259,239.356C606.495,238.989 605.944,237.256 605.525,236.681L602.902,231.75C602.193,230.415 600.794,229.584 599.283,229.599L516.8,229.599C514.413,229.599 512.945,230.281 512.236,231.409L510.689,233.665C508.145,237.888 508.538,239.645 508.538,240.956L508.486,244.418C507.791,246.958 506.968,249.461 506.021,251.918C505.708,252.806 505.472,253.718 505.313,254.646L504.762,257.767C504.71,257.919 504.684,258.078 504.683,258.239L504.604,259.891L505.024,261.832C505.145,262.369 505.628,262.753 506.178,262.75L515.253,262.75C516.01,262.754 516.659,263.313 516.774,264.061L519.239,280.296L527.133,280.296L527.5,286.302L530.149,286.302L531.932,280.296L556.4,280.296L556.4,282.63L558.314,282.63L558.157,280.296L582.6,280.296L584.488,286.696L587.137,286.696L587.504,280.296L594.454,280.296C595.092,280.296 595.641,279.827 595.739,279.196L598.1,263.617C598.176,263.129 598.606,262.768 599.1,262.778L608.726,262.778C609.459,262.775 610.061,262.173 610.064,261.44L610.064,259.919L609.933,256.877L610.008,256.85ZM509.767,247.933C509.811,247.708 509.837,247.48 509.846,247.251L509.977,245.468C509.979,245.023 510.345,244.657 510.79,244.655L603.426,244.314C603.771,244.314 604.08,244.537 604.187,244.865L605.287,248.248C605.313,248.328 605.327,248.412 605.327,248.497C605.327,248.936 604.966,249.297 604.527,249.297L509.819,249.297C509.504,249.323 509.662,248.615 509.793,247.907L509.767,247.933ZM508.324,256.195L511.314,250.871C511.417,250.689 511.605,250.57 511.814,250.556L513.938,250.556L512.758,253.415C512.738,253.463 512.728,253.514 512.728,253.566C512.728,253.784 512.907,253.964 513.125,253.966L513.725,253.966C513.88,253.957 514.02,253.867 514.092,253.73L515.429,250.583L516.714,250.583L515.691,253.442C515.671,253.49 515.661,253.541 515.661,253.593C515.661,253.811 515.84,253.991 516.058,253.993L516.425,253.993C516.582,253.991 516.725,253.899 516.792,253.757L517.815,250.636L518.89,250.636L517.972,253.521C517.961,253.558 517.955,253.596 517.955,253.635C517.955,253.846 518.128,254.02 518.339,254.021L518.811,254.021C518.98,254.008 519.125,253.893 519.178,253.732L520.178,250.611L522.434,250.611L521.752,253.496C521.747,253.522 521.744,253.548 521.744,253.574C521.744,253.79 521.922,253.968 522.138,253.968L522.538,253.968C522.715,253.953 522.863,253.826 522.905,253.653L523.665,250.584L524.924,250.584L524.242,253.495C524.237,253.521 524.234,253.547 524.234,253.573C524.234,253.789 524.412,253.967 524.628,253.967L525.081,253.967C525.267,253.962 525.428,253.832 525.474,253.652L526.13,250.557L528.858,250.557L528.358,253.494C528.353,253.52 528.35,253.546 528.35,253.572C528.35,253.788 528.528,253.966 528.744,253.966L529.171,253.966C529.359,253.967 529.524,253.835 529.564,253.651L529.957,250.582L531.111,250.582L530.822,253.493C530.817,253.519 530.814,253.545 530.814,253.571C530.814,253.787 530.992,253.965 531.208,253.965L531.582,253.965C531.77,253.966 531.935,253.834 531.975,253.65L532.159,250.608L533.418,250.608L533.234,253.572C533.228,253.795 533.405,253.983 533.627,253.992L534.02,253.992C534.225,253.989 534.396,253.829 534.413,253.625L534.597,250.609L537.377,250.609L537.324,253.599L537.324,253.606C537.324,253.818 537.498,253.992 537.71,253.992L538.249,253.992C538.461,253.992 538.635,253.818 538.635,253.606L538.635,250.609L539.92,250.609L539.92,253.606C539.92,253.818 540.094,253.992 540.306,253.992L540.713,253.992C540.925,253.992 541.099,253.818 541.099,253.606L541.099,250.609L543.827,250.609L543.827,253.606C543.827,253.818 544.001,253.992 544.213,253.992L544.404,253.992C544.618,253.988 544.793,253.813 544.797,253.599L544.745,250.609L546.109,250.609L546.057,253.573C546.063,253.801 546.249,253.987 546.477,253.993L546.792,253.993C546.967,253.993 547.111,253.849 547.111,253.674C547.111,253.658 547.109,253.642 547.107,253.626L547.107,250.584L548.418,250.584L548.418,253.555C548.418,253.767 548.592,253.941 548.804,253.941L549.007,253.941C549.219,253.941 549.393,253.767 549.393,253.555L549.393,250.584L552.042,250.584L552.042,253.574C552.068,253.789 552.246,253.955 552.462,253.967L552.698,253.967C552.912,253.963 553.087,253.788 553.091,253.574L553.012,250.584L554.035,250.584L554.087,253.574L554.087,253.581C554.087,253.793 554.261,253.967 554.473,253.967L554.69,253.967C554.904,253.963 555.079,253.788 555.083,253.574L554.952,250.61L557.076,250.61L557.233,253.6L557.233,253.607C557.233,253.819 557.407,253.993 557.619,253.993L557.79,253.993C558.002,253.993 558.176,253.819 558.176,253.607L558.176,253.6L558.076,250.61L559.204,250.61L559.388,253.6L559.388,253.607C559.388,253.819 559.562,253.993 559.774,253.993L560.122,253.993C560.336,253.989 560.511,253.814 560.515,253.6L560.305,250.61L561.305,250.61L561.646,253.626C561.654,253.834 561.831,254 562.039,253.993L562.355,253.993C562.571,253.993 562.748,253.816 562.748,253.6C562.748,253.591 562.748,253.582 562.747,253.573L562.38,250.609L564.872,250.609L565.372,253.651C565.412,253.835 565.577,253.967 565.765,253.966L566.08,253.966C566.298,253.964 566.476,253.784 566.476,253.566C566.476,253.551 566.475,253.535 566.473,253.52L566,250.582L567.39,250.582L567.89,253.624C567.921,253.813 568.092,253.95 568.283,253.939L568.65,253.939C568.868,253.937 569.046,253.757 569.046,253.539C569.046,253.524 569.045,253.508 569.043,253.493L568.623,250.556L570.039,250.556L570.616,253.625C570.656,253.809 570.821,253.941 571.009,253.94L571.402,253.94C571.622,253.933 571.8,253.75 571.8,253.53C571.8,253.509 571.798,253.489 571.795,253.468L571.244,250.531L574.077,250.531L574.602,253.6C574.642,253.784 574.807,253.916 574.995,253.915L575.231,253.915C575.449,253.913 575.627,253.733 575.627,253.515C575.627,253.5 575.626,253.484 575.624,253.469L575.204,250.532L576.437,250.532L577.014,253.601C577.054,253.785 577.219,253.917 577.408,253.916L577.565,253.916C577.785,253.909 577.963,253.726 577.963,253.506C577.963,253.485 577.961,253.465 577.958,253.444L577.407,250.507L578.823,250.507L579.505,253.576C579.55,253.757 579.712,253.886 579.898,253.891L580.239,253.891C580.46,253.877 580.635,253.691 580.635,253.469C580.635,253.452 580.634,253.436 580.632,253.419L579.95,250.508L582.468,250.508L583.307,253.603C583.36,253.764 583.505,253.878 583.674,253.891L584.103,253.891C584.311,253.891 584.481,253.72 584.481,253.513C584.481,253.472 584.474,253.43 584.461,253.391L583.622,250.506L585.222,250.506L585.956,253.575C586.009,253.736 586.154,253.851 586.323,253.864L586.834,253.864C587.04,253.864 587.211,253.694 587.211,253.487C587.211,253.445 587.204,253.404 587.19,253.364L586.377,250.479L588.921,250.479L589.865,253.6C589.918,253.761 590.063,253.875 590.232,253.888L590.53,253.888C590.738,253.888 590.908,253.717 590.908,253.51C590.908,253.469 590.901,253.427 590.888,253.388L590.075,250.503L591.308,250.503L592.226,253.598C592.279,253.759 592.424,253.873 592.593,253.886L592.987,253.886C593.198,253.885 593.371,253.711 593.371,253.5C593.371,253.461 593.365,253.423 593.354,253.386L592.354,250.527L593.639,250.527L594.662,253.648C594.717,253.803 594.864,253.908 595.029,253.91L595.396,253.91C595.607,253.909 595.78,253.735 595.78,253.524C595.78,253.485 595.774,253.447 595.763,253.41L594.763,250.551L597.333,250.551L598.7,253.7C598.767,253.842 598.91,253.934 599.067,253.936L599.487,253.936C599.705,253.934 599.884,253.754 599.884,253.536C599.884,253.484 599.874,253.433 599.854,253.385L598.648,250.552L599.828,250.552L601.218,253.699C601.285,253.841 601.428,253.933 601.585,253.935L602.057,253.935C602.275,253.933 602.454,253.753 602.454,253.535C602.454,253.483 602.444,253.432 602.424,253.384L601.165,250.578L602.083,250.578L604.837,256.086C604.871,256.151 604.88,256.225 604.863,256.296L604.732,257.371C604.714,257.57 604.539,257.722 604.339,257.712L509.216,257.712C509.028,257.713 508.863,257.581 508.823,257.397L508.666,256.453C508.655,256.371 508.673,256.287 508.718,256.217L508.718,256.165L508.324,256.195ZM594.088,279.795L587.588,279.795L587.641,278.929L588.585,262.829L588.585,262.619L585.8,262.619L585.8,262.829L585.066,278.929L585.013,279.795L529.726,279.795L529.674,278.929L528.94,262.829L528.94,262.229L526.107,262.229L526.107,262.829L527.077,278.929L527.129,279.795L520.152,279.795L518,261.414L596.525,261.414L594.062,279.8L594.088,279.8L594.088,279.795Z" style="fill:rgb(51,170,255);fill-rule:nonzero;"/>
        </g>
        <g id="Path_111" transform="matrix(1,0,0,1,249.11,1.628)">
            <path d="M536.988,293L540.319,293C540.477,292.998 540.606,292.869 540.607,292.711L540.607,291.19C540.606,291.032 540.477,290.903 540.319,290.901L536.988,290.901C536.83,290.903 536.701,291.032 536.7,291.19L536.7,292.711C536.701,292.869 536.83,292.998 536.988,293ZM539.401,291.662C539.56,291.662 539.69,291.792 539.69,291.951C539.69,292.11 539.56,292.24 539.401,292.24C539.242,292.24 539.112,292.11 539.112,291.951C539.113,291.793 539.242,291.663 539.4,291.661L539.401,291.662ZM537.801,291.662L537.802,291.662C537.961,291.662 538.091,291.792 538.091,291.951C538.091,292.11 537.961,292.24 537.802,292.24C537.643,292.24 537.513,292.11 537.513,291.951C537.514,291.793 537.642,291.663 537.8,291.661L537.801,291.662Z" style="fill:rgb(51,170,255);fill-rule:nonzero;"/>
        </g>
        <g id="Path_112" transform="matrix(1,0,0,1,204.256,-46.619)">
            <g opacity="0.2">
                <path d="M598.208,372.4L624.96,372.4L624.96,371.535L626.9,371.535L626.9,372.4L653.573,372.4L654.307,356.3L597.5,356.3L598.208,372.4Z" style="fill:rgb(51,170,255);fill-rule:nonzero;"/>
            </g>
        </g>
        <g id="Path_113" transform="matrix(1,0,0,1,230.302,-46.545)">
            <g opacity="0.2">
                <path d="M562.2,357.118L563.8,371.412C563.862,371.916 564.293,372.299 564.8,372.304L569.6,372.304L568.656,356.204L563.017,356.204C562.566,356.215 562.202,356.589 562.202,357.04C562.202,357.059 562.203,357.077 562.204,357.096L562.2,357.118Z" style="fill:rgb(51,170,255);fill-rule:nonzero;"/>
            </g>
        </g>
        <g id="Path_114" transform="matrix(1,0,0,1,39.227,-46.619)">
            <g opacity="0.2">
                <path d="M826.944,371.538L828.57,357.038C828.573,357.012 828.575,356.985 828.575,356.959C828.575,356.6 828.279,356.304 827.92,356.304L822.144,356.304L821.2,372.404L825.947,372.404C826.442,372.408 826.864,372.031 826.917,371.539L826.944,371.538Z" style="fill:rgb(51,170,255);fill-rule:nonzero;"/>
            </g>
        </g>
        <g id="Path_115" transform="matrix(1,0,0,1,202.265,-89.48)">
            <path d="M628.893,414.4L626.952,414.4L626.952,415.266L600.2,415.266L600.252,416.132L655.54,416.132L655.566,415.266L628.893,415.266L628.893,414.4Z" style="fill:rgb(51,170,255);fill-rule:nonzero;"/>
        </g>
        <g id="Path_116" transform="matrix(1,0,0,1,202.265,-89.48)">
            <path d="M628.893,414.4L626.952,414.4L626.952,415.266L600.2,415.266L600.252,416.132L655.54,416.132L655.566,415.266L628.893,415.266L628.893,414.4Z" style="fill:rgb(51,170,255);fill-rule:nonzero;"/>
        </g>
        <g id="Path_117" transform="matrix(1,0,0,1,234.946,-42.709)">
            <path d="M558.024,369.359L565,369.359L564.947,368.493L560.147,368.493C559.637,368.496 559.202,368.108 559.147,367.601L557.547,353.307C557.544,353.278 557.542,353.249 557.542,353.22C557.542,352.778 557.906,352.415 558.347,352.415L564,352.415L564,351.815L566.78,351.815L566.78,352.415L623.641,352.415L623.641,352.205L626.447,352.205L626.447,352.415L632.217,352.415C632.58,352.421 632.876,352.721 632.876,353.085C632.876,353.106 632.875,353.128 632.873,353.149L631.247,367.649C631.194,368.141 630.772,368.518 630.277,368.514L625.53,368.514L625.477,369.38L631.977,369.38L634.451,351L555.9,351L558.051,369.385L558.024,369.359Z" style="fill:rgb(51,170,255);fill-rule:nonzero;"/>
        </g>
        <g id="Path_118" transform="matrix(1,0,0,1,234.872,-35.553)">
            <path d="M558.1,362.2L565.077,362.2L565.024,361.335L560.224,361.335C559.714,361.338 559.279,360.95 559.224,360.443L557.624,346.149C557.621,346.12 557.619,346.091 557.619,346.062C557.619,345.62 557.983,345.257 558.424,345.257L564.076,345.257L564.076,344.657L566.856,344.657L566.856,345.257L623.717,345.257L623.717,345.047L626.523,345.047L626.523,345.257L632.293,345.257C632.656,345.263 632.952,345.563 632.952,345.927C632.952,345.948 632.951,345.97 632.949,345.991L631.323,360.491C631.27,360.983 630.848,361.36 630.353,361.356L625.606,361.356L625.554,362.222L632.054,362.222L634.519,342.446L633.601,341.764L630.952,341.292L558.669,342.367L555.994,342.76L555.994,343.86L558.145,362.245L558.1,362.2Z" style="fill:rgb(51,170,255);fill-rule:nonzero;"/>
        </g>
        <g id="Path_119" transform="matrix(1,0,0,1,20.12,1.481)">
            <path d="M847.231,292.123L847.362,292.123C847.414,292.071 847.493,292.023 847.545,291.966C847.745,291.769 847.965,291.593 848.201,291.441C848.312,291.359 848.436,291.297 848.568,291.257C848.62,291.257 848.699,291.205 848.778,291.205L848.785,291.205C848.853,291.205 848.909,291.261 848.909,291.329L848.909,291.52C848.883,291.704 848.809,291.887 848.778,292.045C848.678,292.1 848.572,292.144 848.463,292.176C848.437,292.176 848.411,292.176 848.411,292.228L848.411,292.328C848.411,292.354 848.437,292.38 848.463,292.354L848.489,292.354C848.515,292.354 848.542,292.328 848.589,292.328C848.636,292.328 848.668,292.302 848.72,292.276L848.746,292.276L848.746,292.328C848.724,292.411 848.69,292.49 848.646,292.564C848.546,292.8 848.436,293.01 848.331,293.246C848.308,293.312 848.274,293.374 848.231,293.43L848.231,293.483L848.362,293.483C848.415,293.483 848.462,293.457 848.462,293.404C848.567,293.194 848.619,293.011 848.698,292.827C848.783,292.633 848.854,292.432 848.908,292.227C848.908,292.201 848.934,292.175 848.987,292.148C849.039,292.148 849.118,292.096 849.171,292.096C849.243,292.088 849.314,292.071 849.381,292.044C849.448,292.017 849.433,292.044 849.433,292.018C849.459,291.992 849.485,291.887 849.433,291.861L849.407,291.861C849.276,291.913 849.145,291.94 849.014,291.992C848.988,291.992 848.962,291.992 848.962,291.966C848.962,291.866 849.014,291.756 849.014,291.651C849.027,291.546 849.027,291.441 849.014,291.336L849.014,291.335C849.014,291.206 848.908,291.1 848.779,291.1L848.778,291.1C848.707,291.092 848.635,291.101 848.568,291.126C848.406,291.176 848.249,291.237 848.096,291.31C847.762,291.463 847.453,291.666 847.178,291.91C847.146,291.939 847.12,291.972 847.1,292.01L847.1,292.063C847.126,292.115 847.152,292.163 847.2,292.163L847.231,292.123Z" style="fill:rgb(51,170,255);fill-rule:nonzero;"/>
        </g>
        <g id="Path_120" transform="matrix(1,0,0,1,8.538,1.702)">
            <path d="M863.141,292.767C863.19,292.766 863.236,292.748 863.272,292.715L863.372,292.715C863.386,292.715 863.398,292.727 863.398,292.741C863.496,292.794 863.615,292.794 863.713,292.741C863.741,292.739 863.763,292.717 863.765,292.689L863.765,292.636C863.765,292.584 863.713,292.584 863.665,292.584C863.639,292.584 863.612,292.61 863.586,292.61C863.534,292.61 863.486,292.61 863.486,292.558L863.486,292.348C863.512,292.217 863.565,292.059 863.586,291.955L863.822,291.247C863.877,291.147 863.921,291.041 863.953,290.932C863.974,290.882 863.951,290.823 863.901,290.801L863.801,290.801C863.775,290.801 863.748,290.827 863.722,290.853C863.722,290.906 863.67,290.953 863.67,291.01C863.576,291.259 863.497,291.513 863.434,291.771C863.378,291.934 863.334,292.101 863.303,292.271C863.307,292.342 863.298,292.413 863.277,292.481C863.268,292.547 863.229,292.605 863.172,292.638C863.152,292.651 863.128,292.659 863.103,292.659C863.054,292.659 863.01,292.63 862.989,292.586L862.989,292.429C862.995,292.341 863.03,292.258 863.089,292.193C863.131,292.153 863.189,292.134 863.246,292.141L863.298,292.141C863.324,292.141 863.351,292.141 863.351,292.089C863.351,292.037 863.325,292.036 863.298,292.01C863.186,291.947 863.045,291.968 862.957,292.062C862.875,292.139 862.82,292.24 862.8,292.351L862.8,292.64C862.839,292.76 862.967,292.83 863.089,292.797L863.141,292.767Z" style="fill:rgb(51,170,255);fill-rule:nonzero;"/>
        </g>
        <g id="Path_121" transform="matrix(1,0,0,1,14.295,-1.322)">
            <path d="M855.076,295C855.028,295.024 854.997,295.073 854.997,295.127C854.997,295.157 855.007,295.186 855.024,295.21C855.024,295.236 855.076,295.262 855.124,295.289C855.189,295.321 855.261,295.339 855.334,295.341L855.36,295.341C855.342,295.394 855.307,295.44 855.26,295.472C855.239,295.503 855.228,295.539 855.228,295.576C855.228,295.677 855.311,295.76 855.412,295.76L855.417,295.76C855.574,295.76 855.548,295.734 855.627,295.681C855.758,295.581 855.916,295.471 856.073,295.366C856.093,295.364 856.111,295.355 856.125,295.34C856.151,295.34 856.177,295.34 856.177,295.366L856.177,295.628C856.177,295.707 856.277,295.728 856.361,295.68C856.407,295.648 856.443,295.602 856.461,295.549C856.516,295.466 856.577,295.387 856.645,295.313C856.647,295.285 856.669,295.263 856.697,295.261L856.749,295.261L856.749,295.361C856.736,295.43 856.736,295.502 856.749,295.571L856.749,295.578C856.749,295.646 856.805,295.702 856.873,295.702L857.011,295.702C857.04,295.705 857.069,295.696 857.09,295.676L857.09,295.624C857.088,295.596 857.066,295.574 857.038,295.572L856.986,295.572C856.96,295.572 856.933,295.572 856.933,295.52L856.933,295.468C856.935,295.395 856.953,295.323 856.986,295.258C856.986,295.206 857.012,295.127 857.012,295.074C857.012,295.021 857.012,295.022 856.986,294.995C856.933,294.969 856.886,294.943 856.855,294.969C856.802,294.969 856.75,295.021 856.698,295.069C856.632,295.127 856.578,295.199 856.541,295.279L856.515,295.279C856.515,295.331 856.489,295.305 856.462,295.305L856.436,295.253C856.436,295.201 856.384,295.201 856.336,295.201C856.291,295.194 856.244,295.204 856.205,295.227C856.101,295.263 856.003,295.316 855.916,295.384C855.816,295.436 855.759,295.515 855.654,295.541C855.549,295.567 855.602,295.567 855.554,295.567C855.506,295.567 855.502,295.567 855.502,295.541L855.502,295.5C855.534,295.453 855.58,295.418 855.633,295.4C855.685,295.4 855.712,295.374 855.764,295.348C855.764,295.348 855.816,295.322 855.816,295.296C855.842,295.296 855.842,295.244 855.816,295.217C855.816,295.191 855.79,295.191 855.764,295.191L855.261,295.191C855.248,295.191 855.238,295.181 855.238,295.168L855.238,295.165C855.238,295.164 855.238,295.113 855.264,295.113L855.764,295.113C855.819,295.114 855.87,295.083 855.895,295.034L855.895,294.9C855.775,294.932 855.652,294.949 855.528,294.952L855.292,294.952C855.234,294.945 855.177,294.965 855.135,295.005L855.083,295.005L855.076,295Z" style="fill:rgb(51,170,255);fill-rule:nonzero;"/>
        </g>
        <g id="Path_122" transform="matrix(1,0,0,1,5.901,-0.745)">
            <path d="M866.434,294.454C866.397,294.482 866.375,294.526 866.375,294.572C866.375,294.618 866.397,294.662 866.434,294.69C866.46,294.69 866.486,294.742 866.534,294.742C866.59,294.747 866.643,294.765 866.691,294.794L866.717,294.794L866.717,294.846C866.697,294.848 866.679,294.857 866.665,294.872C866.639,294.872 866.613,294.898 866.586,294.924C866.533,294.984 866.533,295.074 866.586,295.134C866.631,295.191 866.698,295.227 866.77,295.234C866.86,295.24 866.951,295.222 867.032,295.182C867.19,295.116 867.326,295.007 867.425,294.867C867.478,294.814 867.504,294.736 867.556,294.71C867.57,294.696 867.589,294.687 867.609,294.684C867.635,294.684 867.661,294.684 867.688,294.736C867.688,294.788 867.662,294.815 867.662,294.836C867.655,294.874 867.637,294.908 867.61,294.936C867.584,295.036 867.61,295.093 867.689,295.12C867.744,295.154 867.811,295.163 867.873,295.146C867.94,295.145 868.001,295.106 868.03,295.046C868.056,294.994 868.056,294.994 868.03,294.967C868.024,294.945 868.004,294.93 867.982,294.93C867.971,294.93 867.96,294.934 867.951,294.941C867.931,294.943 867.912,294.952 867.898,294.967L867.846,294.967C867.794,294.961 867.752,294.919 867.746,294.867C867.746,294.841 867.772,294.814 867.798,294.767C867.824,294.741 867.85,294.688 867.877,294.667C867.904,294.646 867.877,294.615 867.877,294.588L867.825,294.536C867.799,294.51 867.746,294.484 867.725,294.457C867.704,294.43 867.673,294.405 867.699,294.357L867.699,294.2C867.687,294.157 867.647,294.127 867.603,294.127C867.581,294.127 867.559,294.135 867.542,294.148L867.49,294.2C867.445,294.26 867.426,294.336 867.437,294.41L867.437,294.594C867.382,294.707 867.301,294.806 867.201,294.883C867.129,294.944 867.049,294.997 866.965,295.04C866.936,295.037 866.907,295.046 866.886,295.066C866.857,295.069 866.828,295.06 866.807,295.04C866.781,295.014 866.807,294.988 866.807,294.961C866.807,294.934 866.833,294.935 866.86,294.909C866.887,294.883 866.912,294.883 866.96,294.857C867.009,294.856 867.055,294.838 867.091,294.805C867.102,294.794 867.108,294.779 867.108,294.763C867.108,294.736 867.091,294.712 867.065,294.705L867.013,294.705C866.898,294.701 866.783,294.683 866.672,294.653C866.644,294.651 866.621,294.628 866.62,294.6C866.62,294.574 866.62,294.548 866.672,294.548L867.013,294.548C867.088,294.552 867.159,294.513 867.197,294.448C867.216,294.407 867.225,294.362 867.223,294.317C867.085,294.347 866.944,294.365 866.803,294.369L866.646,294.369C866.577,294.372 866.512,294.4 866.462,294.448L866.409,294.448L866.434,294.454Z" style="fill:rgb(51,170,255);fill-rule:nonzero;"/>
        </g>
    </g>
</svg>
