<?xml version="1.0" encoding="UTF-8" standalone="no"?>
<!DOCTYPE svg PUBLIC "-//W3C//DTD SVG 1.1//EN" "http://www.w3.org/Graphics/SVG/1.1/DTD/svg11.dtd">
<svg width="100%" height="100%" viewBox="0 0 160 120" version="1.1" xmlns="http://www.w3.org/2000/svg" xmlns:xlink="http://www.w3.org/1999/xlink" xml:space="preserve" xmlns:serif="http://www.serif.com/" style="fill-rule:evenodd;clip-rule:evenodd;stroke-linejoin:round;stroke-miterlimit:2;">
    <g id="Piano" transform="matrix(1,0,0,1,-43.452,-1.741)">
        <path d="M133.02,47.448C135.472,46.937 137.884,46.249 140.237,45.391C140.649,45.224 141.076,45.032 141.509,44.82L141.509,47.512C137.456,47.358 133.02,47.448 133.02,47.448ZM126.683,68.79L124.411,69.201C124.167,69.239 123.977,69.436 123.948,69.681L123.933,69.806C123.916,69.951 123.799,70.066 123.654,70.08L123.643,70.08C123.193,70.125 122.849,70.513 122.858,70.965L122.88,71.965L122.88,71.966C122.88,71.998 122.854,72.024 122.822,72.024C122.815,72.024 122.808,72.023 122.801,72.02L95.389,61.32L95.389,60.52C95.39,60.384 95.502,60.272 95.638,60.272L97.388,60.272C97.514,60.272 97.634,60.218 97.717,60.123L97.784,60.047C97.855,59.966 97.959,59.919 98.067,59.919L101.156,59.919L126.69,68.679C126.719,68.681 126.742,68.705 126.742,68.734C126.742,68.765 126.717,68.79 126.686,68.79L126.683,68.79ZM119.306,86.273C119.305,86.348 119.242,86.41 119.167,86.41C119.142,86.41 119.118,86.403 119.097,86.391L118.502,86.046C118.458,86.02 118.432,85.973 118.433,85.922L118.721,75.304C118.723,75.229 118.785,75.167 118.861,75.167C118.882,75.167 118.902,75.172 118.921,75.181L119.414,75.405C119.464,75.428 119.497,75.479 119.496,75.534L119.306,86.273ZM152.622,48.873C149.992,48.287 147.323,47.893 144.636,47.694C144.429,47.675 144.217,47.658 144,47.642C143.93,47.19 143.82,46.744 143.672,46.311C143.517,45.924 143.233,44.881 143.012,44.03C144.932,42.948 146.772,41.729 148.518,40.384C150.435,38.884 151.934,37.735 152.248,35.765C152.562,33.795 149.148,32.576 146.304,31.582C144.91,31.273 143.93,29.994 143.995,28.568C144.006,28.37 144.098,28.185 144.249,28.056L150.561,22.705C150.633,22.644 150.675,22.554 150.675,22.459C150.675,22.296 150.551,22.157 150.388,22.139L138.6,20.837C138.567,20.833 138.534,20.844 138.51,20.867L109.92,47.772C109.787,47.897 109.735,48.088 109.787,48.263L110.07,49.227C110.071,49.236 110.071,49.246 110.071,49.255C110.071,49.445 109.922,49.604 109.733,49.617L98.756,50.39C98.519,50.407 98.334,50.608 98.337,50.845L98.359,52.533C98.36,52.59 98.368,52.646 98.382,52.701C98.701,53.918 98.612,55.206 98.128,56.367C97.484,57.615 96.161,58.372 94.758,58.296C94.537,58.319 94.301,58.342 94.072,58.364C93.329,58.434 92.753,59.065 92.753,59.812L92.753,62.081C92.753,62.169 92.802,62.249 92.879,62.29L92.944,62.325C93.016,62.363 93.06,62.437 93.06,62.518L93.06,63.708C93.06,63.794 93.111,63.873 93.19,63.908L102.49,68.008C102.524,68.023 102.547,68.057 102.549,68.094L103.009,78.902C103.012,78.975 102.993,79.047 102.955,79.109L102.819,79.33C102.777,79.397 102.756,79.474 102.757,79.553L102.789,81.844C102.79,81.92 102.827,81.99 102.889,82.034L103.684,82.587L103.684,82.65C103.264,82.753 102.965,83.132 102.965,83.565C102.965,84.082 103.391,84.507 103.907,84.507C104.424,84.507 104.849,84.082 104.849,83.565C104.849,83.447 104.827,83.33 104.784,83.22L105.041,83.04L105.323,82.411L106.064,82.185C106.153,82.158 106.215,82.078 106.219,81.985L106.281,79.866C106.283,79.79 106.26,79.715 106.216,79.653L106.116,79.508C106.077,79.453 106.057,79.386 106.061,79.318L106.579,70C106.582,69.934 106.637,69.882 106.703,69.882C106.72,69.882 106.736,69.885 106.752,69.892L116.043,73.852C116.229,73.931 116.351,74.114 116.354,74.316L116.509,85.716C116.511,85.859 116.426,85.99 116.294,86.046L115.188,86.515C115.061,86.569 114.979,86.694 114.979,86.832L114.979,88.632C114.978,88.645 114.978,88.658 114.979,88.671C114.698,88.714 114.414,88.738 114.129,88.743L113.005,88.743C112.737,88.743 112.516,88.964 112.516,89.232C112.516,89.241 112.517,89.249 112.517,89.258L112.523,89.367C112.528,89.465 112.592,89.551 112.685,89.583L112.753,89.603C113.574,89.821 114.444,89.765 115.23,89.443L115.701,89.253L116.296,89.613C116.02,89.757 115.729,89.87 115.428,89.951C115.171,90.012 114.921,90.099 114.682,90.213C114.538,90.28 114.446,90.425 114.446,90.584C114.446,90.714 114.507,90.836 114.612,90.913L114.683,90.967C115.035,91.234 115.521,91.243 115.883,90.991C116.129,90.81 116.393,90.655 116.67,90.526C116.879,90.44 117.108,90.332 117.311,90.233L117.996,90.647C117.724,90.818 117.471,91.017 117.239,91.24C117.087,91.42 116.975,91.63 116.909,91.856C116.898,91.891 116.893,91.928 116.893,91.965C116.893,92.17 117.061,92.338 117.266,92.338L117.895,92.338C118.033,92.338 118.165,92.276 118.253,92.17C118.428,91.961 118.732,91.588 118.977,91.241L120.502,92.164C120.609,92.229 120.742,92.238 120.857,92.188L122.791,91.349C122.944,91.283 123.043,91.13 123.041,90.963L123.019,89.085C123.017,88.904 122.919,88.736 122.763,88.644L121.818,88.088C121.582,87.949 121.441,87.691 121.451,87.418L121.844,76.718C121.848,76.628 121.922,76.557 122.012,76.557C122.034,76.557 122.056,76.561 122.077,76.57L124.498,77.596C124.561,77.623 124.632,77.628 124.698,77.611L127.339,76.919C127.57,76.858 127.816,76.882 128.031,76.987L128.844,77.387C128.937,77.433 129.04,77.454 129.144,77.449L130,77.4C130.3,77.386 130.565,77.603 130.611,77.9C130.74,78.727 130.99,80.474 131.188,82.677C131.436,85.438 131.629,93.364 131.668,95.077C131.673,95.29 131.609,95.499 131.485,95.672L131.432,95.745C131.364,95.841 131.331,95.957 131.339,96.074L131.559,99.188C131.566,99.286 131.621,99.373 131.706,99.422L132.758,100.029L132.758,100.151C132.193,100.291 131.793,100.802 131.793,101.384C131.793,102.081 132.366,102.654 133.063,102.654C133.76,102.654 134.333,102.081 134.333,101.384C134.333,101.225 134.303,101.067 134.245,100.919L134.592,100.677L134.908,99.977L135.679,99.642C135.747,99.613 135.794,99.549 135.8,99.475L136.093,96.315C136.1,96.247 136.09,96.178 136.064,96.115L135.925,95.778C135.881,95.672 135.86,95.558 135.862,95.444C135.877,94.844 135.939,92.667 136.172,88.611C136.399,84.67 136.979,80.176 137.188,78.635C137.238,78.26 137.378,77.903 137.596,77.593C138.109,76.831 138.707,76.13 139.379,75.503C140.334,74.825 141.368,74.267 142.458,73.84C142.526,73.812 142.573,73.747 142.577,73.674L142.623,72.966C142.629,72.876 142.702,72.803 142.792,72.798L143.024,72.786L143.027,72.786C143.053,72.786 143.074,72.807 143.074,72.833L143.074,75.733C143.074,75.847 143.145,75.949 143.252,75.987L143.718,76.158L143.718,76.275C143.369,76.362 143.122,76.678 143.122,77.038C143.122,77.469 143.477,77.824 143.908,77.824C144.339,77.824 144.694,77.469 144.694,77.038C144.694,76.94 144.676,76.842 144.64,76.751L144.854,76.6L144.914,76.466L145.904,76.156C145.968,76.136 146.011,76.076 146.011,76.009L145.981,72.18C145.98,72.097 146.035,72.024 146.115,72.001L146.659,71.845C147.023,71.74 147.276,71.405 147.276,71.026L147.276,69.964C147.276,69.871 147.353,69.794 147.446,69.794L147.666,69.794C147.721,69.794 147.766,69.749 147.766,69.694L147.777,69.518C147.818,68.847 148.249,68.259 148.877,68.018L149.211,67.888C149.45,67.782 149.677,67.652 149.889,67.499C149.945,67.46 149.979,67.396 149.98,67.328L150.095,62.077C150.098,61.922 150.191,61.783 150.333,61.72C150.653,61.579 151.233,61.32 151.633,61.142C152.081,60.942 153.439,60.042 154.017,59.663C154.185,59.552 154.286,59.364 154.286,59.163L154.386,49.703C153.833,49.358 153.24,49.081 152.621,48.877L152.622,48.873Z" style="fill:rgb(51,170,255);fill-rule:nonzero;"/>
    </g>
</svg>
