<?xml version="1.0" encoding="UTF-8" standalone="no"?>
<!DOCTYPE svg PUBLIC "-//W3C//DTD SVG 1.1//EN" "http://www.w3.org/Graphics/SVG/1.1/DTD/svg11.dtd">
<svg width="100%" height="100%" viewBox="0 0 160 120" version="1.1" xmlns="http://www.w3.org/2000/svg" xmlns:xlink="http://www.w3.org/1999/xlink" xml:space="preserve" xmlns:serif="http://www.serif.com/" style="fill-rule:evenodd;clip-rule:evenodd;stroke-linejoin:round;stroke-miterlimit:2;">
    <g transform="matrix(1,0,0,1,52.03,74.999)">
        <path d="M2.206,0L6.617,0C7.827,-0 8.823,0.996 8.823,2.206L8.823,6.617C8.823,7.827 7.827,8.823 6.617,8.823L2.206,8.823C0.996,8.823 0,7.827 0,6.617L0,2.206C-0,0.996 0.996,0 2.206,0Z" style="fill:rgb(0,177,44);fill-opacity:0.6;fill-rule:nonzero;"/>
    </g>
    <g transform="matrix(1,0,0,1,63,75)">
        <path d="M9,2C9,0.896 8.104,0 7,0L2,0C0.896,0 0,0.896 0,2L0,7C0,8.104 0.896,9 2,9L7,9C8.104,9 9,8.104 9,7L9,2Z" style="fill:rgb(0,177,44);fill-opacity:0.6;"/>
    </g>
    <g transform="matrix(1,0,0,1,74,75)">
        <path d="M9,2C9,0.896 8.104,0 7,0L2,0C0.896,0 0,0.896 0,2L0,7C0,8.104 0.896,9 2,9L7,9C8.104,9 9,8.104 9,7L9,2Z" style="fill:rgb(0,177,44);fill-opacity:0.6;"/>
    </g>
    <g transform="matrix(1,0,0,1,96,75)">
        <path d="M9,2C9,0.896 8.104,0 7,0L2,0C0.896,0 0,0.896 0,2L0,7C0,8.104 0.896,9 2,9L7,9C8.104,9 9,8.104 9,7L9,2Z" style="fill:rgb(0,177,44);fill-opacity:0.6;"/>
    </g>
    <g transform="matrix(1,0,0,1,107,75)">
        <path d="M9,2C9,0.896 8.104,0 7,0L2,0C0.896,0 0,0.896 0,2L0,7C0,8.104 0.896,9 2,9L7,9C8.104,9 9,8.104 9,7L9,2Z" style="fill:rgb(0,177,44);fill-opacity:0.6;"/>
    </g>
    <g transform="matrix(1,0,0,1,41,86)">
        <path d="M9,2C9,0.896 8.104,0 7,0L2,0C0.896,0 0,0.896 0,2L0,7C0,8.104 0.896,9 2,9L7,9C8.104,9 9,8.104 9,7L9,2Z" style="fill:rgb(0,177,44);fill-opacity:0.6;"/>
    </g>
    <g transform="matrix(1,0,0,1,52,86)">
        <path d="M9,2C9,0.896 8.104,0 7,0L2,0C0.896,0 0,0.896 0,2L0,7C0,8.104 0.896,9 2,9L7,9C8.104,9 9,8.104 9,7L9,2Z" style="fill:rgb(0,177,44);fill-opacity:0.6;"/>
    </g>
    <g transform="matrix(1,0,0,1,74,86)">
        <path d="M9,2C9,0.896 8.104,0 7,0L2,0C0.896,0 0,0.896 0,2L0,7C0,8.104 0.896,9 2,9L7,9C8.104,9 9,8.104 9,7L9,2Z" style="fill:rgb(0,177,44);fill-opacity:0.6;"/>
    </g>
    <g transform="matrix(1,0,0,1,85,86)">
        <path d="M9,2C9,0.896 8.104,0 7,0L2,0C0.896,0 0,0.896 0,2L0,7C0,8.104 0.896,9 2,9L7,9C8.104,9 9,8.104 9,7L9,2Z" style="fill:rgb(0,177,44);fill-opacity:0.6;"/>
    </g>
    <g transform="matrix(1,0,0,1,96,86)">
        <path d="M9,2C9,0.896 8.104,0 7,0L2,0C0.896,0 0,0.896 0,2L0,7C0,8.104 0.896,9 2,9L7,9C8.104,9 9,8.104 9,7L9,2Z" style="fill:rgb(0,177,44);fill-opacity:0.6;"/>
    </g>
    <g transform="matrix(1,0,0,1,58,22)">
        <path d="M0,0L56,0C57.097,-0 58,0.903 58,2L58,41C58,42.097 57.097,43 56,43L0,43L0,0Z" style="fill:rgb(0,177,44);fill-opacity:0.6;fill-rule:nonzero;"/>
    </g>
    <g transform="matrix(1,0,0,1,41,75)">
        <path d="M9,2C9,0.896 8.104,0 7,0L2,0C0.896,0 0,0.896 0,2L0,7C0,8.104 0.896,9 2,9L7,9C8.104,9 9,8.104 9,7L9,2Z" style="fill:rgb(38,255,128);"/>
    </g>
    <g transform="matrix(1,0,0,1,85,75)">
        <path d="M9,2C9,0.896 8.104,0 7,0L2,0C0.896,0 0,0.896 0,2L0,7C0,8.104 0.896,9 2,9L7,9C8.104,9 9,8.104 9,7L9,2Z" style="fill:rgb(38,255,128);"/>
    </g>
    <g transform="matrix(1,0,0,1,63,86)">
        <path d="M9,2C9,0.896 8.104,0 7,0L2,0C0.896,0 0,0.896 0,2L0,7C0,8.104 0.896,9 2,9L7,9C8.104,9 9,8.104 9,7L9,2Z" style="fill:rgb(38,255,128);"/>
    </g>
    <g transform="matrix(1,0,0,1,107,86)">
        <path d="M9,2C9,0.896 8.104,0 7,0L2,0C0.896,0 0,0.896 0,2L0,7C0,8.104 0.896,9 2,9L7,9C8.104,9 9,8.104 9,7L9,2Z" style="fill:rgb(38,255,128);"/>
    </g>
    <g transform="matrix(1,0,0,1,41,22)">
        <path d="M2,0L15,0L15,43L2,43C0.903,43 0,42.097 0,41L0,2C-0,0.903 0.903,0 2,0Z" style="fill:rgb(38,255,128);fill-rule:nonzero;"/>
    </g>
    <g transform="matrix(1,0,0,1,62,49)">
        <path d="M6,2C6,0.896 5.104,0 4,0L2,0C0.896,0 0,0.896 0,2L0,4C0,5.104 0.896,6 2,6L4,6C5.104,6 6,5.104 6,4L6,2Z" style="fill:rgb(38,255,128);"/>
    </g>
    <g transform="matrix(1,0,0,1,69,31)">
        <path d="M6,2C6,0.896 5.104,0 4,0L2,0C0.896,0 0,0.896 0,2L0,4C0,5.104 0.896,6 2,6L4,6C5.104,6 6,5.104 6,4L6,2Z" style="fill:rgb(38,255,128);"/>
    </g>
    <g transform="matrix(1,0,0,1,78,49)">
        <path d="M6,2C6,0.896 5.104,0 4,0L2,0C0.896,0 0,0.896 0,2L0,4C0,5.104 0.896,6 2,6L4,6C5.104,6 6,5.104 6,4L6,2Z" style="fill:rgb(38,255,128);"/>
    </g>
    <g transform="matrix(1,0,0,1,85,31)">
        <path d="M6,2C6,0.896 5.104,0 4,0L2,0C0.896,0 0,0.896 0,2L0,4C0,5.104 0.896,6 2,6L4,6C5.104,6 6,5.104 6,4L6,2Z" style="fill:rgb(38,255,128);"/>
    </g>
    <g transform="matrix(1,0,0,1,94,49)">
        <path d="M6,2C6,0.896 5.104,0 4,0L2,0C0.896,0 0,0.896 0,2L0,4C0,5.104 0.896,6 2,6L4,6C5.104,6 6,5.104 6,4L6,2Z" style="fill:rgb(38,255,128);"/>
    </g>
    <g transform="matrix(1,0,0,1,101,31)">
        <path d="M6,2C6,0.896 5.104,0 4,0L2,0C0.896,0 0,0.896 0,2L0,4C0,5.104 0.896,6 2,6L4,6C5.104,6 6,5.104 6,4L6,2Z" style="fill:rgb(38,255,128);"/>
    </g>
</svg>
