<?xml version="1.0" encoding="UTF-8" standalone="no"?>
<!DOCTYPE svg PUBLIC "-//W3C//DTD SVG 1.1//EN" "http://www.w3.org/Graphics/SVG/1.1/DTD/svg11.dtd">
<svg width="100%" height="100%" viewBox="0 0 160 120" version="1.1" xmlns="http://www.w3.org/2000/svg" xmlns:xlink="http://www.w3.org/1999/xlink" xml:space="preserve" xmlns:serif="http://www.serif.com/" style="fill-rule:evenodd;clip-rule:evenodd;stroke-linejoin:round;stroke-miterlimit:2;">
    <g id="RecordNow" transform="matrix(1,0,0,1,-920,-505)">
        <g transform="matrix(1,0,0,1,1028,550)">
            <circle cx="18" cy="18" r="18" style="fill:rgb(255,96,96);"/>
        </g>
        <g transform="matrix(0.64486,0,0,1,953,547)">
            <path d="M0,0L105,0C106.097,-0 107,0.903 107,2L107,10C107,11.097 106.097,12 105,12L0,12L0,0Z" style="fill:rgb(255,96,96);fill-opacity:0.2;fill-rule:nonzero;"/>
        </g>
        <g transform="matrix(0.64486,0,0,1,953,562)">
            <path d="M0,0L105,0C106.097,-0 107,0.903 107,2L107,10C107,11.097 106.097,12 105,12L0,12L0,0Z" style="fill:rgb(255,96,96);fill-opacity:0.4;fill-rule:nonzero;"/>
        </g>
        <g transform="matrix(0.64486,0,0,1,953,577)">
            <path d="M0,0L105,0C106.097,-0 107,0.903 107,2L107,10C107,11.097 106.097,12 105,12L0,12L0,0Z" style="fill:rgb(255,96,96);fill-opacity:0.6;fill-rule:nonzero;"/>
        </g>
        <g transform="matrix(1,0,0,1,936,547)">
            <path d="M2,0L15,0L15,12L2,12C0.903,12 0,11.097 0,10L0,2C-0,0.903 0.903,0 2,0Z" style="fill:rgb(255,96,96);fill-rule:nonzero;"/>
        </g>
        <g transform="matrix(1,0,0,1,936,562)">
            <path d="M2,0L15,0L15,12L2,12C0.903,12 0,11.097 0,10L0,2C-0,0.903 0.903,0 2,0Z" style="fill:rgb(255,96,96);fill-rule:nonzero;"/>
        </g>
        <g transform="matrix(1,0,0,1,936,577)">
            <path d="M2,0L15,0L15,12L2,12C0.903,12 0,11.097 0,10L0,2C-0,0.903 0.903,0 2,0Z" style="fill:rgb(255,96,96);fill-rule:nonzero;"/>
        </g>
        <g id="Path_182" transform="matrix(0.966,-0.259,0.259,0.966,816.18,383.468)">
            <path d="M157.779,181.266L157.735,181.222C157.173,181.143 156.621,181.437 156.372,181.947C156.436,182.151 156.533,182.344 156.658,182.518C156.836,182.477 157.012,182.425 157.185,182.364C157.229,182.452 157.251,182.54 157.295,182.65C156.895,182.85 156.526,183.068 156.152,183.265C156.138,183.224 156.116,183.186 156.086,183.155C156.042,183.111 155.998,183.089 155.954,183.045C156.108,182.935 156.262,182.825 156.416,182.693C156.306,182.517 156.196,182.341 156.086,182.144C155.517,182.055 154.952,182.35 154.701,182.869C154.774,183.07 154.87,183.261 154.987,183.44C155.166,183.402 155.342,183.35 155.514,183.286C155.533,183.384 155.563,183.48 155.602,183.572C155.228,183.772 154.855,183.99 154.481,184.187L154.415,184.055C154.371,184.033 154.327,183.989 154.283,183.967C154.437,183.857 154.591,183.747 154.745,183.615C154.642,183.459 154.546,183.298 154.459,183.132C154.393,183.044 154.283,183.066 154.173,183.044C153.956,183.048 153.744,183.109 153.558,183.22C153.369,183.325 153.21,183.476 153.096,183.659C153.074,183.703 153.03,183.747 153.052,183.813C153.113,184.001 153.202,184.179 153.316,184.34C153.498,184.301 153.674,184.242 153.843,184.164C153.839,184.216 153.847,184.269 153.865,184.318C153.865,184.362 153.909,184.406 153.931,184.472C153.557,184.672 153.162,184.89 152.788,185.087C152.727,185.009 152.66,184.935 152.588,184.867C152.742,184.757 152.896,184.647 153.05,184.515C152.953,184.332 152.843,184.155 152.72,183.988C152.549,183.933 152.364,183.933 152.193,183.988C151.828,184.091 151.524,184.346 151.358,184.688C151.422,184.892 151.519,185.085 151.644,185.259C151.82,185.237 151.996,185.149 152.171,185.127C152.21,185.211 152.24,185.3 152.259,185.391C151.885,185.611 151.49,185.809 151.094,186.028C151.027,185.942 150.953,185.861 150.874,185.786C151.03,185.681 151.177,185.563 151.314,185.434C151.198,185.259 151.095,185.075 151.006,184.885C150.572,184.815 150.132,184.973 149.841,185.303C149.742,185.39 149.672,185.505 149.641,185.633C149.707,185.826 149.795,186.01 149.905,186.182C150.088,186.161 150.267,186.109 150.432,186.028C150.459,186.134 150.496,186.237 150.542,186.336C150.168,186.536 149.817,186.736 149.442,186.929C149.381,186.844 149.314,186.763 149.242,186.687C149.396,186.577 149.55,186.467 149.704,186.335C149.594,186.159 149.504,185.961 149.396,185.808C149.269,185.755 149.128,185.747 148.996,185.786C148.609,185.849 148.266,186.073 148.051,186.401C148.029,186.445 147.985,186.489 148.007,186.533C148.059,186.724 148.149,186.904 148.271,187.06C148.449,187.019 148.625,186.967 148.798,186.906C148.821,187.013 148.858,187.116 148.908,187.214C148.578,187.39 148.271,187.566 147.941,187.741C147.669,187.85 147.47,188.09 147.414,188.378C147.37,188.778 147.546,189.147 147.414,189.543C147.335,189.735 147.206,189.902 147.04,190.026C146.249,190.795 145.48,191.564 144.688,192.312C143.809,193.169 142.93,194.048 142.051,194.883C141.414,195.498 140.798,196.114 140.161,196.729C139.282,197.542 138.447,198.399 137.59,199.234L135.348,201.41C134.535,202.179 133.766,202.948 132.974,203.74C132.117,204.553 131.26,205.388 130.425,206.223C129.458,207.146 128.513,208.091 127.568,209.014C126.755,209.783 125.968,210.614 125.129,211.387C124.953,211.541 124.799,211.787 124.536,211.827C124.285,211.91 124.007,211.851 123.811,211.673C123.548,211.378 123.36,211.023 123.262,210.64C123.018,209.826 122.694,209.038 122.295,208.288C122.334,208.33 122.379,208.367 122.427,208.398C122.493,208.332 122.471,208.244 122.449,208.156L122.405,208.112L122.537,208.002L122.603,208.09C122.757,208.134 122.933,208.156 123.087,208.2C123.096,208.124 123.081,208.047 123.043,207.98C122.893,207.7 122.717,207.435 122.516,207.189C122.469,207.121 122.397,207.073 122.316,207.057C122.262,207.242 122.239,207.435 122.25,207.628L122.118,207.716C122.073,207.7 122.034,207.669 122.008,207.628L121.942,207.562L121.876,207.606C121.883,207.659 121.898,207.711 121.92,207.76C121.618,207.371 121.245,207.042 120.82,206.793C120.095,206.371 119.235,206.245 118.42,206.441C117.822,206.609 117.274,206.918 116.82,207.341C116.092,208.032 115.477,208.833 114.996,209.714C114.644,210.344 114.336,210.998 114.073,211.67C113.783,212.482 113.36,213.24 112.82,213.912C112.222,214.649 111.471,215.249 110.62,215.67C110.003,215.951 109.372,216.2 108.73,216.417C107.411,216.879 106.115,217.317 104.84,217.867C103.343,218.467 101.966,219.33 100.774,220.416C99.846,221.286 99.164,222.385 98.796,223.603C98.467,224.79 98.398,226.035 98.596,227.251C98.688,227.779 98.858,228.29 99.101,228.767C99.53,229.618 100.038,230.427 100.617,231.184C101.452,232.26 102.347,233.287 103.298,234.261C103.474,234.437 103.65,234.635 103.847,234.81C103.781,234.788 103.693,234.744 103.627,234.81C103.87,235.02 104.098,235.248 104.308,235.491C104.374,235.425 104.33,235.359 104.308,235.291C104.835,235.862 105.429,236.412 106,236.939C107.209,238.109 108.551,239.132 110,239.988C110.681,240.382 111.437,240.629 112.22,240.713C113.382,240.816 114.553,240.697 115.67,240.361C116.533,240.074 117.336,239.633 118.043,239.061C119.24,238.032 120.212,236.768 120.9,235.347C121.65,233.828 122.289,232.258 122.812,230.647C122.966,230.163 123.212,229.702 123.405,229.24C123.759,228.448 124.242,227.72 124.834,227.086C125.55,226.397 126.393,225.853 127.317,225.486C127.998,225.2 128.68,224.915 129.339,224.563C130.414,224.045 131.371,223.311 132.152,222.409C132.69,221.789 133.006,221.008 133.052,220.189C133.066,219.809 132.904,219.444 132.612,219.2C132.269,218.936 131.821,218.846 131.403,218.958C130.883,219.115 130.382,219.329 129.909,219.595C129.296,219.908 128.635,220.116 127.953,220.21C127.699,220.254 127.438,220.254 127.184,220.21C126.531,220.173 125.914,219.9 125.448,219.441C125.077,219.022 124.928,218.45 125.048,217.903C125.136,217.448 125.34,217.024 125.641,216.672C126.322,215.991 127.004,215.265 127.685,214.584C128.103,214.166 128.498,213.749 128.916,213.331C129.751,212.452 130.608,211.617 131.421,210.738C131.883,210.276 132.321,209.815 132.784,209.353C133.575,208.496 134.41,207.683 135.223,206.826C135.948,206.057 136.717,205.31 137.465,204.54C138.124,203.859 138.806,203.199 139.443,202.496C140.08,201.837 140.743,201.177 141.377,200.518C142.234,199.618 143.113,198.76 143.97,197.859C144.651,197.178 145.333,196.496 145.992,195.793C146.692,195.068 147.399,194.365 148.08,193.639C148.52,193.177 148.98,192.716 149.421,192.276C150.132,191.494 150.972,190.84 151.904,190.342C152.475,190.034 153.091,189.771 153.684,189.507C154.456,189.186 155.153,188.707 155.728,188.1C156.079,187.702 156.348,187.239 156.519,186.737C156.585,186.537 156.607,186.275 156.783,186.144C157.201,185.792 157.794,185.858 158.277,185.682C158.749,185.526 159.138,185.185 159.354,184.737C159.595,184.25 159.619,183.683 159.42,183.177C159.337,182.981 159.217,182.802 159.068,182.65C158.922,182.494 158.741,182.373 158.541,182.298C158.296,182.228 158.035,182.236 157.794,182.32C157.772,182.276 157.728,182.21 157.706,182.166C157.662,182.144 157.618,182.1 157.574,182.078C157.728,181.968 157.882,181.858 158.036,181.726C157.926,181.55 157.836,181.374 157.728,181.199L157.779,181.266Z" style="fill:rgb(255,96,96);fill-rule:nonzero;"/>
        </g>
    </g>
</svg>
