<?xml version="1.0" encoding="UTF-8" standalone="no"?>
<!DOCTYPE svg PUBLIC "-//W3C//DTD SVG 1.1//EN" "http://www.w3.org/Graphics/SVG/1.1/DTD/svg11.dtd">
<svg width="100%" height="100%" viewBox="0 0 160 120" version="1.1" xmlns="http://www.w3.org/2000/svg" xmlns:xlink="http://www.w3.org/1999/xlink" xml:space="preserve" xmlns:serif="http://www.serif.com/" style="fill-rule:evenodd;clip-rule:evenodd;stroke-linejoin:round;stroke-miterlimit:2;">
    <g id="RecordNow_MultipleTracks" transform="matrix(1,0,0,1,-920,-240)">
        <g transform="matrix(1,0,0,1,953,282)">
            <path d="M0,0L49,0C50.097,-0 51,0.903 51,2L51,10C51,11.097 50.097,12 49,12L0,12L0,0Z" style="fill:rgb(255,96,96);fill-opacity:0.2;fill-rule:nonzero;"/>
        </g>
        <g transform="matrix(1,0,0,1,953,297)">
            <path d="M0,0L49,0C50.097,-0 51,0.903 51,2L51,10C51,11.097 50.097,12 49,12L0,12L0,0Z" style="fill:rgb(255,96,96);fill-opacity:0.4;fill-rule:nonzero;"/>
        </g>
        <g transform="matrix(1,0,0,1,953,312)">
            <path d="M0,0L49,0C50.097,-0 51,0.903 51,2L51,10C51,11.097 50.097,12 49,12L0,12L0,0Z" style="fill:rgb(255,96,96);fill-opacity:0.6;fill-rule:nonzero;"/>
        </g>
        <g transform="matrix(1,0,0,1,936,282)">
            <path d="M2,0L15,0L15,12L2,12C0.903,12 0,11.097 0,10L0,2C-0,0.903 0.903,0 2,0Z" style="fill:rgb(255,96,96);fill-rule:nonzero;"/>
        </g>
        <g transform="matrix(1,0,0,1,936,297)">
            <path d="M2,0L15,0L15,12L2,12C0.903,12 0,11.097 0,10L0,2C-0,0.903 0.903,0 2,0Z" style="fill:rgb(255,96,96);fill-rule:nonzero;"/>
        </g>
        <g transform="matrix(1,0,0,1,936,312)">
            <path d="M2,0L15,0L15,12L2,12C0.903,12 0,11.097 0,10L0,2C-0,0.903 0.903,0 2,0Z" style="fill:rgb(255,96,96);fill-rule:nonzero;"/>
        </g>
        <g transform="matrix(1,0,0,1,1028,286)">
            <circle cx="18" cy="18" r="18" style="fill:rgb(255,96,96);"/>
        </g>
        <g transform="matrix(1,0,0,1,810.989,79.163)">
            <path d="M192.941,240.494C192.975,238.071 193.567,236.547 196.729,235.683C197.98,235.342 203.129,233.476 203.883,229.075C204.053,228.129 204.084,227.164 203.974,226.209C198.31,229.655 193.282,224.275 197.502,220.044L199.128,218.338L221.4,195.18L221.582,194.998C222.23,194.463 223.527,193.758 224.312,194.327C224.619,193.883 225.112,193.258 225.688,192.575L226.132,193.019C225.945,193.357 226.005,193.782 226.28,194.054C226.564,194.338 226.974,194.407 227.417,193.954C227.86,193.501 227.861,193.154 227.517,192.817C227.258,192.519 226.814,192.456 226.482,192.669L226.016,192.203C226.416,191.759 226.846,191.293 227.301,190.827L227.824,191.35C227.637,191.688 227.697,192.113 227.972,192.385C228.256,192.669 228.666,192.738 229.109,192.285C229.552,191.832 229.553,191.485 229.209,191.148C228.95,190.85 228.506,190.787 228.174,191L227.651,190.477C228.095,190.033 228.561,189.613 229.027,189.214L229.038,189.214L229.493,189.669C229.306,190.007 229.366,190.432 229.641,190.704C229.982,191.045 230.335,191.057 230.778,190.604C231.221,190.151 231.222,189.804 230.878,189.467C230.619,189.169 230.175,189.106 229.843,189.319L229.422,188.898C230.004,188.421 230.628,187.998 231.287,187.635C230.479,187.248 230.639,185.326 229.695,184.962C229.431,184.905 229.159,184.905 228.895,184.962C228.941,184.735 228.895,184.427 228.918,184.2C228.543,183.2 226.529,183.381 226.257,182.608C225.896,183.264 225.475,183.886 225,184.465L224.579,184.044C224.766,183.706 224.706,183.281 224.431,183.009C224.147,182.725 223.737,182.656 223.294,183.109C222.851,183.562 222.85,183.909 223.194,184.246C223.453,184.544 223.897,184.607 224.229,184.394L224.684,184.849C224.284,185.327 223.854,185.793 223.41,186.237L222.887,185.714C223.075,185.376 223.014,184.951 222.739,184.679C222.398,184.338 222.045,184.326 221.602,184.779C221.159,185.232 221.158,185.579 221.502,185.916C221.761,186.214 222.205,186.277 222.537,186.064L223.06,186.587C222.594,187.042 222.127,187.474 221.684,187.872L221.218,187.406C221.405,187.068 221.345,186.643 221.07,186.371C220.729,186.03 220.376,186.018 219.933,186.471C219.49,186.924 219.489,187.271 219.833,187.608C220.105,187.883 220.53,187.943 220.868,187.756L221.312,188.2C220.754,188.691 220.17,189.151 219.56,189.576C220.129,190.361 219.424,191.657 218.889,192.306L218.707,192.488L195.55,214.758C192.525,211.71 189.59,209.173 184.824,210.004C180.424,210.755 178.557,215.904 178.216,217.158C177.352,220.32 175.827,220.911 173.405,220.946C167.081,221.026 162.736,222.936 160.086,225.587C155.9,229.773 152.056,240.055 161.667,250.564C161.715,250.673 161.776,250.777 161.849,250.871C161.649,251.087 161.792,251.246 161.838,251.383L161.463,251.758L161.418,251.758L161.225,251.565C161.177,251.52 161.102,251.52 161.054,251.565L160.872,251.747C160.827,251.795 160.827,251.87 160.872,251.918L161.998,253.044C162.046,253.089 162.121,253.089 162.169,253.044L162.351,252.862C162.396,252.814 162.396,252.739 162.351,252.691L162.158,252.498L162.158,252.464L162.533,252.089C162.681,252.123 162.84,252.26 163.045,252.078C163.141,252.141 163.242,252.198 163.345,252.249L163.379,252.283C173.879,261.86 184.148,258.015 188.334,253.83C190.984,251.18 192.906,246.824 192.975,240.511L192.941,240.494ZM184.82,229.04C184.026,228.246 183.579,227.167 183.579,226.044C183.579,223.719 185.492,221.806 187.817,221.806C190.142,221.806 192.055,223.719 192.055,226.044C192.055,227.167 191.608,228.246 190.814,229.04C190.021,229.837 188.941,230.285 187.817,230.285C186.693,230.285 185.613,229.837 184.82,229.04Z" style="fill:rgb(255,96,96);fill-rule:nonzero;"/>
        </g>
    </g>
</svg>
