<?xml version="1.0" encoding="utf-8"?>
<!DOCTYPE svg PUBLIC "-//W3C//DTD SVG 1.1//EN" "http://www.w3.org/Graphics/SVG/1.1/DTD/svg11.dtd">
<svg version="1.1" id="Ebene_1" xmlns="http://www.w3.org/2000/svg" xmlns:xlink="http://www.w3.org/1999/xlink" x="0px" y="0px"
	 width="28.35px" height="28.35px" viewBox="0 0 28.35 28.35" enable-background="new 0 0 28.35 28.35" xml:space="preserve">
<g>
	<defs>
		<rect id="SVGID_1_" x="-9" y="-17.43" width="45.972" height="63.779"/>
	</defs>
	<!--
	<clipPath id="SVGID_2_">
		<use xlink:href="#SVGID_1_"  overflow="visible"/>
	</clipPath>
	-->
	<path clip-path="url(#SVGID_2_)" fill="#D1744F" d="M14.25,6.556c-1.889,0-1.888,1.883-1.888,1.883v1.412c0,0,0,0.471,0.468,0.471
		c0.469,0,0.476-0.471,0.476-0.471V7.969c0,0,0-0.942,0.944-0.942c0.946,0,0.946,0.942,0.946,0.942v3.295
		c0,0.942-0.946,0.943-0.946,0.943s-1.861,0.011-1.861,1.894l-0.027,3.755c0,0,0,1.883,1.888,1.883c1.89,0,1.89-1.044,1.89-1.044
		V9.24C16.14,9.24,16.14,6.556,14.25,6.556 M15.195,18.326L15.195,18.326c0,0,0,0.941-0.946,0.941c-0.944,0-0.944-0.941-0.944-0.941
		v-4.708c0-0.604,0.376-0.941,0.944-0.941c0.57,0,0.946,0.338,0.946,0.941V18.326z"/>
	<path clip-path="url(#SVGID_2_)" fill="#D1744F" d="M8.522,1.196c0,0,0-0.475-0.477-0.475c-0.476,0-0.476,0.475-0.476,0.475v5.229
		c0,1.472-0.428,2.373-0.953,3.146C6.09,8.798,5.663,7.896,5.663,6.425V1.196c0,0,0-0.475-0.478-0.475
		c-0.476,0-0.476,0.475-0.476,0.475v5.229c0,1.902,0.715,2.853,1.43,3.803c-0.714,0.951-1.43,1.901-1.43,3.802v5.229
		c0,0,0,0.476,0.476,0.476c0.478,0,0.478-0.476,0.478-0.476V14.03c0-1.47,0.428-2.372,0.953-3.146
		c0.525,0.773,0.953,1.675,0.953,3.146v5.229c0,0,0,0.476,0.476,0.476c0.477,0,0.477-0.476,0.477-0.476V14.03
		c0-1.901-0.715-2.852-1.43-3.802c0.715-0.951,1.43-1.902,1.43-3.803V1.196z"/>
	<path clip-path="url(#SVGID_2_)" fill="#D1744F" d="M9.952,19.528v6.877c0,0.951-0.714,0.951-0.714,0.951S9,27.356,9,27.594
		c0,0.238,0.238,0.238,0.238,0.238c0.477,0,1.668,0,1.668-1.9c0-1.903,0,0.949,0-19.015c0,0,0-0.475-0.476-0.475
		c-0.478,0-0.478,0.475-0.478,0.475v11.408V19.528z"/>
	<path clip-path="url(#SVGID_2_)" fill="#D1744F" d="M19.46,7.416c-0.282,0-0.512,0.088-0.691,0.266
		c-0.178,0.177-0.268,0.404-0.268,0.682v10.885c0,0.125-0.044,0.239-0.135,0.34c-0.09,0.103-0.197,0.152-0.326,0.152
		c-0.332,0-0.497-0.163-0.497-0.492V8.363c0-0.53,0.185-0.979,0.555-1.346c0.37-0.365,0.825-0.55,1.362-0.55
		c0.535,0,1.021,0.215,1.457,0.645c0.383-0.429,0.854-0.645,1.417-0.645c0.537,0,0.991,0.185,1.36,0.55
		c0.37,0.367,0.556,0.816,0.556,1.346v10.885c0,0.125-0.045,0.239-0.134,0.34c-0.091,0.103-0.199,0.152-0.325,0.152
		c-0.332,0-0.498-0.163-0.498-0.492V8.363c0-0.278-0.091-0.505-0.27-0.682c-0.178-0.177-0.408-0.266-0.689-0.266
		c-0.282,0-0.511,0.088-0.69,0.266c-0.179,0.177-0.268,0.404-0.268,0.682v10.885c0,0.125-0.045,0.239-0.134,0.34
		c-0.09,0.103-0.199,0.152-0.325,0.152c-0.333,0-0.5-0.163-0.5-0.492V8.363c0-0.278-0.089-0.505-0.268-0.682
		C19.969,7.504,19.74,7.416,19.46,7.416"/>
</g>
</svg>
